<svg width="36" height="36" viewBox="0 0 36 36" fill="none" xmlns="http://www.w3.org/2000/svg">
<g opacity="0.4">
<path fill-rule="evenodd" clip-rule="evenodd" d="M32.9999 18C32.9999 9.72 26.2649 3 17.9999 3C9.71988 3 2.99988 9.72 2.99988 18C2.99988 26.265 9.71988 33 17.9999 33C26.2649 33 32.9999 26.265 32.9999 18ZM15.0299 24C14.5949 23.55 14.5949 22.845 15.0449 22.41L19.4699 18L15.0449 13.59C14.5949 13.155 14.5949 12.435 15.0299 12C15.4799 11.55 16.1849 11.55 16.6199 12L21.8549 17.205C22.0649 17.415 22.1849 17.7 22.1849 18C22.1849 18.3 22.0649 18.585 21.8549 18.795L16.6199 24C16.4099 24.225 16.1249 24.33 15.8399 24.33C15.5399 24.33 15.2549 24.225 15.0299 24Z" fill="#130F26"/>
</g>
</svg>
