<svg width="36" height="36" viewBox="0 0 36 36" fill="none" xmlns="http://www.w3.org/2000/svg">
<g opacity="0.4">
<path fill-rule="evenodd" clip-rule="evenodd" d="M3.00012 18C3.00012 9.72 9.73512 3 18.0001 3C26.2801 3 33.0001 9.72 33.0001 18C33.0001 26.265 26.2801 33 18.0001 33C9.73512 33 3.00012 26.265 3.00012 18ZM20.9701 24C21.4051 23.55 21.4051 22.845 20.9551 22.41L16.5301 18L20.9551 13.59C21.4051 13.155 21.4051 12.435 20.9701 12C20.5201 11.55 19.8151 11.55 19.3801 12L14.1451 17.205C13.9351 17.415 13.8151 17.7 13.8151 18C13.8151 18.3 13.9351 18.585 14.1451 18.795L19.3801 24C19.5901 24.225 19.8751 24.33 20.1601 24.33C20.4601 24.33 20.7451 24.225 20.9701 24Z" fill="#130F26"/>
</g>
</svg>
