<svg width="101" height="89" viewBox="0 0 101 89" fill="none" xmlns="http://www.w3.org/2000/svg">
<g filter="url(#filter0_d_159_1448)">
<circle cx="51" cy="36" r="28" fill="white"/>
</g>
<path d="M41.625 28.5C40.574 28.5 39.75 29.324 39.75 30.375C39.75 31.426 40.574 32.25 41.625 32.25C42.676 32.25 43.5 31.426 43.5 30.375C43.5 29.324 42.676 28.5 41.625 28.5ZM47.25 30.375C47.25 29.324 46.426 28.5 45.375 28.5C44.324 28.5 43.5 29.324 43.5 30.375C43.5 31.426 44.324 32.25 45.375 32.25C46.426 32.25 47.25 31.426 47.25 30.375ZM49.125 32.25C50.176 32.25 51 31.426 51 30.375C51 29.324 50.176 28.5 49.125 28.5C48.074 28.5 47.25 29.324 47.25 30.375C47.25 31.426 48.074 32.25 49.125 32.25ZM66.4818 50.2239L66.48 50.2229C65.3063 49.5015 64.9163 47.9183 65.6194 46.7428C66.5349 45.1497 67 43.4277 67 41.625C67 35.9387 62.3104 31.3125 56.625 31.3125C55.7919 31.3125 55.0027 31.4041 54.2794 31.5835C53.9389 31.6686 53.6734 31.9388 53.5928 32.2811C52.8714 35.3921 50.3939 37.8695 47.2812 38.5937C47.1131 38.6329 46.9591 38.7176 46.836 38.8386C46.713 38.9595 46.6256 39.1121 46.5836 39.2794C46.4041 40.0009 46.3125 40.7901 46.3125 41.625C46.3125 47.3113 50.9396 52 56.625 52H66.0625C66.4964 52 66.8755 51.7006 66.9744 51.2776C67.0751 50.8547 66.87 50.418 66.4818 50.2239Z" fill="url(#paint0_linear_159_1448)"/>
<path d="M45.375 20C39.6937 20 35 24.6937 35 30.375C35 32.1749 35.4688 33.9374 36.3687 35.4562C37.0624 36.675 36.6688 38.2313 35.4688 38.9438C35.0938 39.15 34.9251 39.5812 35.0376 39.9937C35.1501 40.4062 35.5063 40.6875 35.9375 40.6875H45.375C46.2 40.6875 47.0062 40.5938 47.7 40.425C51.5063 39.5437 54.5437 36.5062 55.425 32.7188C55.5938 32.0063 55.6875 31.2188 55.6875 30.375C55.6875 24.6937 51.0563 20 45.375 20ZM41.625 31.3125C41.0999 31.3125 40.6875 30.8999 40.6875 30.375C40.6875 29.8499 41.0999 29.4375 41.625 29.4375C42.1501 29.4375 42.5625 29.8499 42.5625 30.375C42.5625 30.8999 42.1501 31.3125 41.625 31.3125ZM45.375 31.3125C44.8499 31.3125 44.4375 30.8999 44.4375 30.375C44.4375 29.8499 44.8499 29.4375 45.375 29.4375C45.9001 29.4375 46.3125 29.8499 46.3125 30.375C46.3125 30.8999 45.9001 31.3125 45.375 31.3125ZM49.125 31.3125C48.5999 31.3125 48.1875 30.8999 48.1875 30.375C48.1875 29.8499 48.5999 29.4375 49.125 29.4375C49.6501 29.4375 50.0625 29.8499 50.0625 30.375C50.0625 30.8999 49.6501 31.3125 49.125 31.3125ZM52.875 40.6875C52.3573 40.6875 51.9375 41.1073 51.9375 41.625C51.9375 42.1427 52.3573 42.5625 52.875 42.5625C53.3927 42.5625 53.8125 42.1427 53.8125 41.625C53.8125 41.1073 53.3927 40.6875 52.875 40.6875ZM56.625 40.6875C56.1073 40.6875 55.6875 41.1073 55.6875 41.625C55.6875 42.1427 56.1073 42.5625 56.625 42.5625C57.1427 42.5625 57.5625 42.1427 57.5625 41.625C57.5625 41.1073 57.1427 40.6875 56.625 40.6875ZM60.375 40.6875C59.8573 40.6875 59.4375 41.1073 59.4375 41.625C59.4375 42.1427 59.8573 42.5625 60.375 42.5625C60.8927 42.5625 61.3125 42.1427 61.3125 41.625C61.3125 41.1073 60.8927 40.6875 60.375 40.6875Z" fill="url(#paint1_linear_159_1448)"/>
<path d="M4.42969 79.04C3.62969 79.84 3.22969 80.88 3.22969 82.16C3.22969 83.44 3.62969 84.48 4.42969 85.28C5.22969 86.08 6.26969 86.48 7.54969 86.48C7.98702 86.48 8.40302 86.416 8.79769 86.288C9.19235 86.16 9.51769 86.0107 9.77369 85.84C10.0297 85.6587 10.2537 85.4773 10.4457 85.296C10.6377 85.1147 10.7764 84.96 10.8617 84.832L10.9897 84.64H11.2297V86.64C11.1977 86.6827 11.1444 86.7413 11.0697 86.816C11.0057 86.8907 10.851 87.0187 10.6057 87.2C10.371 87.3813 10.1097 87.5413 9.82169 87.68C9.54435 87.8187 9.17635 87.9467 8.71769 88.064C8.26969 88.1813 7.80035 88.24 7.30969 88.24C5.59235 88.24 4.14702 87.6587 2.97369 86.496C1.81102 85.3227 1.22969 83.8773 1.22969 82.16C1.22969 80.4427 1.81102 79.0027 2.97369 77.84C4.14702 76.6667 5.59235 76.08 7.30969 76.08C7.83235 76.08 8.33369 76.1387 8.81369 76.256C9.30435 76.3733 9.70435 76.5173 10.0137 76.688C10.3337 76.848 10.611 77.008 10.8457 77.168C11.091 77.328 11.267 77.4667 11.3737 77.584L11.5497 77.76L10.8297 79.28C10.7977 79.2373 10.7497 79.184 10.6857 79.12C10.6324 79.056 10.499 78.944 10.2857 78.784C10.083 78.6133 9.86435 78.464 9.62969 78.336C9.40569 78.208 9.10169 78.096 8.71769 78C8.34435 77.8933 7.95502 77.84 7.54969 77.84C6.26969 77.84 5.22969 78.24 4.42969 79.04ZM21.3153 88H19.4753V82.96C19.4753 82.3733 19.31 81.92 18.9793 81.6C18.6486 81.28 18.2006 81.12 17.6353 81.12C16.9846 81.12 16.4193 81.3547 15.9393 81.824C15.47 82.2827 15.2353 82.848 15.2353 83.52V88H13.3953V75.84H15.2353V80.96H15.3153C15.3366 80.9173 15.3633 80.864 15.3953 80.8C15.438 80.7253 15.534 80.6027 15.6833 80.432C15.8433 80.2613 16.0193 80.112 16.2113 79.984C16.4033 79.8453 16.6593 79.7227 16.9793 79.616C17.31 79.4987 17.662 79.44 18.0353 79.44C19.038 79.44 19.8326 79.744 20.4193 80.352C21.0166 80.96 21.3153 81.8027 21.3153 82.88V88ZM26.5897 86.64C26.9524 86.64 27.2777 86.5813 27.5657 86.464C27.8537 86.336 28.0777 86.1867 28.2377 86.016C28.3977 85.8453 28.531 85.6747 28.6377 85.504C28.7444 85.3333 28.819 85.184 28.8617 85.056L28.9097 84.88C28.867 84.8373 28.7924 84.784 28.6857 84.72C28.5897 84.656 28.3604 84.576 27.9977 84.48C27.6457 84.3733 27.2564 84.32 26.8297 84.32C26.3604 84.32 25.987 84.432 25.7097 84.656C25.443 84.8693 25.3097 85.1573 25.3097 85.52C25.3097 85.8827 25.4217 86.16 25.6457 86.352C25.8697 86.544 26.1844 86.64 26.5897 86.64ZM27.1497 79.44C28.3017 79.44 29.187 79.7387 29.8057 80.336C30.435 80.9333 30.7497 81.7547 30.7497 82.8V88H28.9897L28.9097 86.72H28.8297C28.819 86.7627 28.7924 86.8213 28.7497 86.896C28.7177 86.96 28.6324 87.0773 28.4937 87.248C28.355 87.4187 28.195 87.5733 28.0137 87.712C27.843 87.84 27.5924 87.9573 27.2617 88.064C26.931 88.1813 26.5737 88.24 26.1897 88.24C25.3684 88.24 24.6964 88 24.1737 87.52C23.651 87.04 23.3897 86.4427 23.3897 85.728C23.3897 84.928 23.6617 84.2827 24.2057 83.792C24.7604 83.2907 25.5284 83.04 26.5097 83.04C26.9577 83.04 27.379 83.088 27.7737 83.184C28.179 83.28 28.467 83.3707 28.6377 83.456L28.9097 83.6V82.88C28.9097 82.3147 28.7337 81.8827 28.3817 81.584C28.0404 81.2747 27.5497 81.12 26.9097 81.12C26.3657 81.12 25.8377 81.2213 25.3257 81.424C24.8244 81.6267 24.4564 81.824 24.2217 82.016L23.8697 82.32H23.6297V80.64C23.7364 80.5547 23.8857 80.448 24.0777 80.32C24.2697 80.1813 24.6697 80 25.2777 79.776C25.8964 79.552 26.5204 79.44 27.1497 79.44ZM33.5472 85.2V81.36H32.0272V80.72L35.3072 77.2H35.3872V79.68H38.0272V81.36H35.3872V85.12C35.3872 85.5787 35.5045 85.936 35.7392 86.192C35.9845 86.4373 36.2939 86.56 36.6672 86.56C36.9232 86.56 37.1632 86.5067 37.3872 86.4C37.6219 86.2933 37.7872 86.1867 37.8832 86.08L38.0272 85.92H38.2672V87.52C38.2139 87.5733 38.1339 87.6427 38.0272 87.728C37.9312 87.8027 37.7072 87.904 37.3552 88.032C37.0139 88.1707 36.6512 88.24 36.2672 88.24C35.4565 88.24 34.8005 87.9733 34.2992 87.44C33.7979 86.896 33.5472 86.1493 33.5472 85.2ZM49.7022 79.68L52.1022 85.44H52.1822L54.2622 79.68H56.1822L53.1422 88H51.4622L49.6222 83.52H49.5422L47.7022 88H46.0222L42.9822 79.68H44.9022L46.9822 85.44H47.0622L49.4622 79.68H49.7022ZM59.4697 79.6V88H57.6297V79.6C57.8964 79.7067 58.2004 79.76 58.5417 79.76C58.7017 79.76 58.8564 79.7493 59.0057 79.728C59.1657 79.696 59.283 79.6693 59.3577 79.648L59.4697 79.6ZM57.7737 77.712C57.571 77.52 57.4697 77.2587 57.4697 76.928C57.4697 76.5973 57.571 76.336 57.7737 76.144C57.9764 75.9413 58.2324 75.84 58.5417 75.84C58.851 75.84 59.107 75.9413 59.3097 76.144C59.523 76.336 59.6297 76.5973 59.6297 76.928C59.6297 77.2587 59.523 77.52 59.3097 77.712C59.107 77.904 58.851 78 58.5417 78C58.2324 78 57.9764 77.904 57.7737 77.712ZM62.3441 85.2V81.36H60.8241V80.72L64.1041 77.2H64.1841V79.68H66.8241V81.36H64.1841V85.12C64.1841 85.5787 64.3014 85.936 64.5361 86.192C64.7814 86.4373 65.0907 86.56 65.4641 86.56C65.7201 86.56 65.9601 86.5067 66.1841 86.4C66.4187 86.2933 66.5841 86.1867 66.6801 86.08L66.8241 85.92H67.0641V87.52C67.0107 87.5733 66.9307 87.6427 66.8241 87.728C66.7281 87.8027 66.5041 87.904 66.1521 88.032C65.8107 88.1707 65.4481 88.24 65.0641 88.24C64.2534 88.24 63.5974 87.9733 63.0961 87.44C62.5947 86.896 62.3441 86.1493 62.3441 85.2ZM76.9091 88H75.0691V82.96C75.0691 82.3733 74.9037 81.92 74.5731 81.6C74.2424 81.28 73.7944 81.12 73.2291 81.12C72.5784 81.12 72.0131 81.3547 71.5331 81.824C71.0637 82.2827 70.8291 82.848 70.8291 83.52V88H68.9891V75.84H70.8291V80.96H70.9091C70.9304 80.9173 70.9571 80.864 70.9891 80.8C71.0317 80.7253 71.1277 80.6027 71.2771 80.432C71.4371 80.2613 71.6131 80.112 71.8051 79.984C71.9971 79.8453 72.2531 79.7227 72.5731 79.616C72.9037 79.4987 73.2557 79.44 73.6291 79.44C74.6317 79.44 75.4264 79.744 76.0131 80.352C76.6104 80.96 76.9091 81.8027 76.9091 82.88V88ZM83.4578 79.68H85.2978V84.72C85.2978 85.3067 85.4631 85.76 85.7938 86.08C86.1245 86.4 86.5725 86.56 87.1378 86.56C87.7885 86.56 88.3485 86.3307 88.8178 85.872C89.2978 85.4027 89.5378 84.832 89.5378 84.16V79.68H91.3778V88H89.6178L89.5378 86.72H89.4578C89.4365 86.7627 89.4045 86.8213 89.3618 86.896C89.3298 86.96 89.2338 87.0773 89.0738 87.248C88.9245 87.4187 88.7538 87.5733 88.5618 87.712C88.3698 87.84 88.1085 87.9573 87.7778 88.064C87.4578 88.1813 87.1111 88.24 86.7378 88.24C85.7351 88.24 84.9351 87.936 84.3378 87.328C83.7511 86.72 83.4578 85.8773 83.4578 84.8V79.68ZM99.9303 85.68C99.9303 86.48 99.6423 87.1093 99.0663 87.568C98.4903 88.016 97.605 88.24 96.4103 88.24C95.813 88.24 95.2476 88.1547 94.7143 87.984C94.181 87.8027 93.797 87.6267 93.5623 87.456L93.2103 87.2L93.7703 85.68C93.8556 85.744 93.973 85.824 94.1223 85.92C94.2823 86.016 94.597 86.1493 95.0663 86.32C95.5463 86.48 96.021 86.56 96.4903 86.56C97.557 86.56 98.0903 86.24 98.0903 85.6C98.0903 85.312 97.925 85.0827 97.5943 84.912C97.2743 84.7413 96.885 84.6027 96.4263 84.496C95.9676 84.3893 95.5036 84.2613 95.0343 84.112C94.5756 83.9627 94.181 83.7067 93.8503 83.344C93.5303 82.9707 93.3703 82.496 93.3703 81.92C93.3703 81.216 93.6423 80.6293 94.1863 80.16C94.741 79.68 95.4823 79.44 96.4103 79.44C97.0076 79.44 97.5623 79.536 98.0743 79.728C98.597 79.9093 98.9703 80.096 99.1943 80.288L99.5303 80.56L98.8103 81.936C98.7463 81.872 98.6556 81.7973 98.5383 81.712C98.4316 81.616 98.181 81.4933 97.7863 81.344C97.4023 81.1947 96.997 81.12 96.5703 81.12C95.717 81.12 95.2903 81.4133 95.2903 82C95.2903 82.2453 95.4503 82.4427 95.7703 82.592C96.0903 82.7413 96.4743 82.8693 96.9223 82.976C97.381 83.0827 97.8343 83.2213 98.2823 83.392C98.741 83.552 99.1303 83.824 99.4503 84.208C99.7703 84.592 99.9303 85.0827 99.9303 85.68Z" fill="white"/>
<defs>
<filter id="filter0_d_159_1448" x="11" y="0" width="80" height="80" filterUnits="userSpaceOnUse" color-interpolation-filters="sRGB">
<feFlood flood-opacity="0" result="BackgroundImageFix"/>
<feColorMatrix in="SourceAlpha" type="matrix" values="0 0 0 0 0 0 0 0 0 0 0 0 0 0 0 0 0 0 127 0" result="hardAlpha"/>
<feOffset dy="4"/>
<feGaussianBlur stdDeviation="6"/>
<feComposite in2="hardAlpha" operator="out"/>
<feColorMatrix type="matrix" values="0 0 0 0 0 0 0 0 0 0 0 0 0 0 0 0 0 0 0.1 0"/>
<feBlend mode="normal" in2="BackgroundImageFix" result="effect1_dropShadow_159_1448"/>
<feBlend mode="normal" in="SourceGraphic" in2="effect1_dropShadow_159_1448" result="shape"/>
</filter>
<linearGradient id="paint0_linear_159_1448" x1="53.375" y1="52" x2="53.375" y2="28.5" gradientUnits="userSpaceOnUse">
<stop stop-color="#A93AFF"/>
<stop offset="1" stop-color="#FF81FF"/>
</linearGradient>
<linearGradient id="paint1_linear_159_1448" x1="48.1563" y1="42.5625" x2="48.1563" y2="20" gradientUnits="userSpaceOnUse">
<stop stop-color="#FFBEF9"/>
<stop offset="1" stop-color="#FFF1FF"/>
</linearGradient>
</defs>
</svg>
