<svg width="26" height="26" viewBox="0 0 26 26" fill="none" xmlns="http://www.w3.org/2000/svg">
<path d="M8.28744 22.6525C8.25494 22.6525 8.21161 22.6742 8.17911 22.6742C6.07744 21.6342 4.36577 19.9117 3.31494 17.81C3.31494 17.7775 3.33661 17.7342 3.33661 17.7017C4.65827 18.0917 6.02327 18.3842 7.37744 18.6117C7.61577 19.9767 7.89744 21.3308 8.28744 22.6525Z" fill="#ABABAB"/>
<path d="M22.685 17.8208C21.6125 19.9767 19.825 21.7208 17.6475 22.7717C18.0591 21.3958 18.4058 20.0092 18.6333 18.6117C19.9983 18.3842 21.3416 18.0917 22.6633 17.7017C22.6525 17.745 22.685 17.7883 22.685 17.8208Z" fill="#ABABAB"/>
<path d="M22.7716 8.35256C21.4066 7.94089 20.0308 7.60506 18.6333 7.36673C18.4058 5.96923 18.07 4.58256 17.6475 3.22839C19.89 4.30089 21.6991 6.11006 22.7716 8.35256Z" fill="#ABABAB"/>
<path d="M8.28744 3.34744C7.89744 4.66911 7.61577 6.01244 7.38827 7.37744C5.99077 7.59411 4.6041 7.94077 3.22827 8.35244C4.2791 6.17494 6.02327 4.38744 8.17911 3.31494C8.21161 3.31494 8.25494 3.34744 8.28744 3.34744Z" fill="#ABABAB"/>
<path d="M16.7809 7.13913C14.2676 6.85746 11.7326 6.85746 9.21924 7.13913C9.49007 5.65496 9.83674 4.17079 10.3242 2.74079C10.3459 2.65413 10.3351 2.58913 10.3459 2.50246C11.2017 2.29663 12.0792 2.16663 13.0001 2.16663C13.9101 2.16663 14.7984 2.29663 15.6434 2.50246C15.6542 2.58913 15.6542 2.65413 15.6759 2.74079C16.1634 4.18163 16.5101 5.65496 16.7809 7.13913Z" fill="#ABABAB"/>
<path d="M7.13925 16.7808C5.64425 16.5099 4.17091 16.1633 2.74091 15.6758C2.65425 15.6541 2.58925 15.6649 2.50258 15.6541C2.29675 14.7983 2.16675 13.9208 2.16675 12.9999C2.16675 12.0899 2.29675 11.2016 2.50258 10.3566C2.58925 10.3458 2.65425 10.3458 2.74091 10.3241C4.18175 9.84745 5.64425 9.48995 7.13925 9.21912C6.86841 11.7324 6.86841 14.2674 7.13925 16.7808Z" fill="#ABABAB"/>
<path d="M23.8333 12.9999C23.8333 13.9208 23.7033 14.7983 23.4975 15.6541C23.4108 15.6649 23.3458 15.6541 23.2592 15.6758C21.8183 16.1524 20.345 16.5099 18.8608 16.7808C19.1425 14.2674 19.1425 11.7324 18.8608 9.21912C20.345 9.48995 21.8292 9.83662 23.2592 10.3241C23.3458 10.3458 23.4108 10.3566 23.4975 10.3566C23.7033 11.2124 23.8333 12.0899 23.8333 12.9999Z" fill="#ABABAB"/>
<path d="M16.7809 18.8608C16.5101 20.3558 16.1634 21.8292 15.6759 23.2592C15.6542 23.3458 15.6542 23.4108 15.6434 23.4975C14.7984 23.7033 13.9101 23.8333 13.0001 23.8333C12.0792 23.8333 11.2017 23.7033 10.3459 23.4975C10.3351 23.4108 10.3459 23.3458 10.3242 23.2592C9.84757 21.8183 9.49007 20.3558 9.21924 18.8608C10.4759 19.0017 11.7326 19.0992 13.0001 19.0992C14.2676 19.0992 15.5351 19.0017 16.7809 18.8608Z" fill="#ABABAB"/>
<path d="M17.077 17.0769C14.3675 17.4188 11.6327 17.4188 8.92314 17.0769C8.58128 14.3674 8.58128 11.6325 8.92314 8.92302C11.6327 8.58116 14.3675 8.58116 17.077 8.92302C17.4189 11.6325 17.4189 14.3674 17.077 17.0769Z" fill="#ABABAB"/>
</svg>
