<svg width="39" height="38" viewBox="0 0 39 38" fill="none" xmlns="http://www.w3.org/2000/svg">
<rect x="1" y="1" width="37" height="36" rx="18" fill="white"/>
<rect x="1" y="1" width="37" height="36" rx="18" stroke="#F95E19"/>
<path d="M21.03 8.85V10.72C21.602 10.8373 22.152 11.028 22.68 11.292C23.2227 11.5413 23.6187 11.7613 23.868 11.952L24.22 12.26L23.12 14.9C23.0173 14.7973 22.8633 14.6727 22.658 14.526C22.4673 14.3793 22.0713 14.1887 21.47 13.954C20.8833 13.7047 20.2967 13.58 19.71 13.58C19.0647 13.58 18.5513 13.7267 18.17 14.02C17.8033 14.2987 17.62 14.6653 17.62 15.12C17.62 15.472 17.8033 15.8093 18.17 16.132C18.5367 16.44 18.9913 16.7113 19.534 16.946C20.0767 17.1807 20.6633 17.4667 21.294 17.804C21.9393 18.1413 22.5333 18.4933 23.076 18.86C23.6187 19.2267 24.0733 19.718 24.44 20.334C24.8067 20.9353 24.99 21.6173 24.99 22.38C24.99 23.6267 24.638 24.6607 23.934 25.482C23.23 26.2887 22.262 26.8313 21.03 27.11V29.09H18.06V27.22C17.312 27.1613 16.586 26.978 15.882 26.67C15.1927 26.3473 14.6867 26.0467 14.364 25.768L13.88 25.35L14.98 22.71C15.024 22.754 15.0827 22.8127 15.156 22.886C15.244 22.9593 15.4127 23.0913 15.662 23.282C15.926 23.4727 16.1973 23.6413 16.476 23.788C16.7693 23.9347 17.136 24.0667 17.576 24.184C18.016 24.3013 18.456 24.36 18.896 24.36C19.776 24.36 20.4433 24.1913 20.898 23.854C21.3527 23.5167 21.58 23.062 21.58 22.49C21.58 22.0793 21.3967 21.7053 21.03 21.368C20.6633 21.0307 20.2087 20.7447 19.666 20.51C19.1233 20.2753 18.5293 19.9893 17.884 19.652C17.2533 19.3147 16.6667 18.97 16.124 18.618C15.5813 18.2513 15.1267 17.76 14.76 17.144C14.3933 16.5133 14.21 15.802 14.21 15.01C14.21 13.9247 14.5547 13.008 15.244 12.26C15.948 11.512 16.8867 10.9987 18.06 10.72V8.85H21.03Z" fill="#141C28"/>
</svg>
