<svg width="24" height="24" viewBox="0 0 24 24" fill="none" xmlns="http://www.w3.org/2000/svg">
<path opacity="0.1" d="M24 12C24 18.618 18.6168 24 12 24C5.3832 24 0 18.618 0 12C0 5.3832 5.3832 0 12 0C18.6168 0 24 5.3832 24 12Z" fill="#141C28"/>
<path d="M17.065 10.2689C17.065 10.4981 16.9774 10.7285 16.8022 10.9037L12.6382 15.0881C12.469 15.2573 12.2398 15.3521 11.9998 15.3521C11.761 15.3521 11.5318 15.2573 11.3626 15.0881L7.19616 10.9037C6.84576 10.5521 6.84576 9.98328 7.19856 9.63168C7.55136 9.28128 8.12136 9.28248 8.47176 9.63408L11.9998 13.1777L15.5278 9.63408C15.8782 9.28248 16.447 9.28128 16.7998 9.63168C16.9774 9.80688 17.065 10.0385 17.065 10.2689Z" fill="#F95E19"/>
</svg>
