<svg width="26" height="26" viewBox="0 0 26 26" fill="none" xmlns="http://www.w3.org/2000/svg">
<path d="M18.4167 3.79163H7.58342C4.33341 3.79163 2.16675 5.41663 2.16675 9.20829V16.7916C2.16675 20.5833 4.33341 22.2083 7.58342 22.2083H18.4167C21.6667 22.2083 23.8334 20.5833 23.8334 16.7916V9.20829C23.8334 5.41663 21.6667 3.79163 18.4167 3.79163ZM18.9259 10.3891L15.5351 13.0975C14.8201 13.6716 13.9101 13.9533 13.0001 13.9533C12.0901 13.9533 11.1692 13.6716 10.4651 13.0975L7.07425 10.3891C6.72758 10.1075 6.67341 9.58746 6.94425 9.24079C7.22591 8.89413 7.73508 8.82913 8.08175 9.11079L11.4726 11.8191C12.2959 12.48 13.6934 12.48 14.5167 11.8191L17.9076 9.11079C18.2542 8.82913 18.7742 8.88329 19.0451 9.24079C19.3267 9.58746 19.2726 10.1075 18.9259 10.3891Z" fill="#ABABAB"/>
</svg>
