<svg width="80" height="89" viewBox="0 0 80 89" fill="none" xmlns="http://www.w3.org/2000/svg">
<g filter="url(#filter0_d_159_1447)">
<circle cx="40" cy="36" r="28" fill="white"/>
</g>
<g clip-path="url(#clip0_159_1447)">
<path d="M55.332 22.1288L43.6312 30.5879L41.7112 31.9791C40.6941 32.7306 39.3057 32.7306 38.2886 31.9791L36.3686 30.5879L24.6538 22.1427C24.9749 21.6936 25.3989 21.3279 25.8903 21.0762C26.3816 20.8244 26.9261 20.694 27.4782 20.6957H52.5216C53.0699 20.6962 53.6102 20.8263 54.0987 21.0753C54.5871 21.3244 55.0097 21.6853 55.332 22.1288Z" fill="#FFD54F"/>
<path d="M24.654 22.1427L36.3688 30.5879L25.0157 41.9409C24.6929 41.6173 24.4371 41.2332 24.2628 40.8107C24.0885 40.3881 23.9992 39.9354 24 39.4783V24.174C23.9969 23.4447 24.226 22.7332 24.654 22.1427ZM56 24.174V39.4784C56.0009 39.9354 55.9116 40.3882 55.7373 40.8107C55.563 41.2333 55.3072 41.6174 54.9844 41.941L43.6314 30.5879L55.3322 22.1288C55.7666 22.7222 56.0005 23.4386 56 24.174Z" fill="#FFC107"/>
<path d="M44.8694 45.7392C43.9456 45.7392 43.4781 45.0435 43.4781 43.6522C43.5009 41.7083 41.9435 40.114 39.9995 40.0913C38.0556 40.0685 36.4614 41.6259 36.4386 43.5699C36.4158 45.5138 37.9732 47.108 39.9172 47.1308C40.4318 47.1368 40.9415 47.0299 41.4104 46.8176C41.8792 46.6053 42.2958 46.2927 42.6308 45.902C42.8575 46.2904 43.1856 46.61 43.5799 46.8264C43.9742 47.0428 44.4199 47.1479 44.8694 47.1305C47.652 47.1305 47.652 44.512 47.652 43.6522C47.6521 39.4261 44.2261 36 40 35.9999C35.7738 35.9997 32.3478 39.4257 32.3477 43.652C32.3476 47.8781 35.7735 51.3042 39.9997 51.3043C41.9852 51.3043 43.8931 50.5326 45.3202 49.1521C45.5964 48.8832 45.6023 48.4413 45.3334 48.165C45.0645 47.8887 44.6225 47.8829 44.3463 48.1518C41.8575 50.5522 37.894 50.4806 35.4935 47.9918C33.0931 45.5031 33.1647 41.5396 35.6535 39.1391C38.1422 36.7387 42.1057 36.8103 44.5062 39.299C45.6334 40.4677 46.2625 42.0286 46.2607 43.6523C46.2607 45.2119 45.9101 45.7392 44.8694 45.7392ZM39.9999 45.7392C38.8473 45.7392 37.9129 44.8048 37.9129 43.6522C37.9129 42.4996 38.8473 41.5653 39.9999 41.5653C41.1525 41.5653 42.0868 42.4996 42.0868 43.6522C42.0868 44.8048 41.1525 45.7392 39.9999 45.7392Z" fill="#455A64"/>
<path d="M43.6313 30.5879L41.7113 31.9792C40.6941 32.7306 39.3058 32.7306 38.2887 31.9792L36.3687 30.5879L25.0156 41.9409C25.3392 42.2637 25.7233 42.5196 26.1458 42.6938C26.5684 42.8681 27.0212 42.9574 27.4782 42.9566H30.9912C31.3676 37.9816 35.7057 34.2536 40.6807 34.63C45.1324 34.9668 48.6705 38.5049 49.0073 42.9566H52.5217C52.9788 42.9574 53.4315 42.8681 53.8541 42.6938C54.2766 42.5196 54.6607 42.2637 54.9843 41.9409L43.6313 30.5879Z" fill="#FFA000"/>
</g>
<path d="M7.53563 88V76.32H14.9756V78.08H9.45563V81.2H13.7756V82.96H9.45563V86.24H14.9756V88H7.53563ZM30.4156 88H28.5756V82.96C28.5756 81.7333 28.0156 81.12 26.8956 81.12C26.3196 81.12 25.813 81.3493 25.3756 81.808C24.949 82.256 24.7356 82.8267 24.7356 83.52V88H22.8956V82.96C22.8956 81.7333 22.3356 81.12 21.2156 81.12C20.6396 81.12 20.133 81.3493 19.6956 81.808C19.269 82.256 19.0556 82.8267 19.0556 83.52V88H17.2156V79.68H18.9756L19.0556 80.96H19.1356C19.157 80.9173 19.1836 80.864 19.2156 80.8C19.2583 80.7253 19.3543 80.6027 19.5036 80.432C19.653 80.2613 19.8183 80.112 19.9996 79.984C20.181 79.8453 20.421 79.7227 20.7196 79.616C21.029 79.4987 21.3543 79.44 21.6956 79.44C22.0796 79.44 22.4316 79.4987 22.7516 79.616C23.0823 79.7333 23.3383 79.872 23.5196 80.032C23.7116 80.192 23.8716 80.3573 23.9996 80.528C24.1276 80.688 24.2183 80.8267 24.2716 80.944L24.3356 81.12H24.4156C24.437 81.0773 24.469 81.0187 24.5116 80.944C24.5543 80.8693 24.6556 80.736 24.8156 80.544C24.9756 80.3413 25.157 80.1707 25.3596 80.032C25.5623 79.8827 25.845 79.7493 26.2076 79.632C26.5703 79.504 26.9596 79.44 27.3756 79.44C28.3036 79.44 29.0396 79.7493 29.5836 80.368C30.1383 80.976 30.4156 81.8133 30.4156 82.88V88ZM35.6913 86.64C36.0539 86.64 36.3793 86.5813 36.6673 86.464C36.9553 86.336 37.1793 86.1867 37.3393 86.016C37.4993 85.8453 37.6326 85.6747 37.7393 85.504C37.8459 85.3333 37.9206 85.184 37.9633 85.056L38.0113 84.88C37.9686 84.8373 37.8939 84.784 37.7873 84.72C37.6913 84.656 37.4619 84.576 37.0993 84.48C36.7473 84.3733 36.3579 84.32 35.9313 84.32C35.4619 84.32 35.0886 84.432 34.8113 84.656C34.5446 84.8693 34.4113 85.1573 34.4113 85.52C34.4113 85.8827 34.5233 86.16 34.7473 86.352C34.9713 86.544 35.2859 86.64 35.6913 86.64ZM36.2513 79.44C37.4033 79.44 38.2886 79.7387 38.9073 80.336C39.5366 80.9333 39.8513 81.7547 39.8513 82.8V88H38.0913L38.0113 86.72H37.9313C37.9206 86.7627 37.8939 86.8213 37.8513 86.896C37.8193 86.96 37.7339 87.0773 37.5953 87.248C37.4566 87.4187 37.2966 87.5733 37.1153 87.712C36.9446 87.84 36.6939 87.9573 36.3633 88.064C36.0326 88.1813 35.6753 88.24 35.2913 88.24C34.4699 88.24 33.7979 88 33.2753 87.52C32.7526 87.04 32.4913 86.4427 32.4913 85.728C32.4913 84.928 32.7633 84.2827 33.3073 83.792C33.8619 83.2907 34.6299 83.04 35.6113 83.04C36.0593 83.04 36.4806 83.088 36.8753 83.184C37.2806 83.28 37.5686 83.3707 37.7393 83.456L38.0113 83.6V82.88C38.0113 82.3147 37.8353 81.8827 37.4833 81.584C37.1419 81.2747 36.6513 81.12 36.0113 81.12C35.4673 81.12 34.9393 81.2213 34.4273 81.424C33.9259 81.6267 33.5579 81.824 33.3233 82.016L32.9713 82.32H32.7313V80.64C32.8379 80.5547 32.9873 80.448 33.1793 80.32C33.3713 80.1813 33.7713 80 34.3793 79.776C34.9979 79.552 35.6219 79.44 36.2513 79.44ZM44.0088 79.6V88H42.1688V79.6C42.4354 79.7067 42.7394 79.76 43.0807 79.76C43.2407 79.76 43.3954 79.7493 43.5448 79.728C43.7048 79.696 43.8221 79.6693 43.8968 79.648L44.0088 79.6ZM42.3128 77.712C42.1101 77.52 42.0088 77.2587 42.0088 76.928C42.0088 76.5973 42.1101 76.336 42.3128 76.144C42.5154 75.9413 42.7714 75.84 43.0807 75.84C43.3901 75.84 43.6461 75.9413 43.8488 76.144C44.0621 76.336 44.1688 76.5973 44.1688 76.928C44.1688 77.2587 44.0621 77.52 43.8488 77.712C43.6461 77.904 43.3901 78 43.0807 78C42.7714 78 42.5154 77.904 42.3128 77.712ZM48.2431 75.84V88H46.4031V75.84H48.2431ZM54.8719 79.68H56.7119V84.72C56.7119 85.3067 56.8772 85.76 57.2079 86.08C57.5385 86.4 57.9865 86.56 58.5519 86.56C59.2025 86.56 59.7625 86.3307 60.2319 85.872C60.7119 85.4027 60.9519 84.832 60.9519 84.16V79.68H62.7919V88H61.0319L60.9519 86.72H60.8719C60.8505 86.7627 60.8185 86.8213 60.7759 86.896C60.7439 86.96 60.6479 87.0773 60.4879 87.248C60.3385 87.4187 60.1679 87.5733 59.9759 87.712C59.7839 87.84 59.5225 87.9573 59.1919 88.064C58.8719 88.1813 58.5252 88.24 58.1519 88.24C57.1492 88.24 56.3492 87.936 55.7519 87.328C55.1652 86.72 54.8719 85.8773 54.8719 84.8V79.68ZM71.3444 85.68C71.3444 86.48 71.0564 87.1093 70.4804 87.568C69.9044 88.016 69.019 88.24 67.8244 88.24C67.227 88.24 66.6617 88.1547 66.1284 87.984C65.595 87.8027 65.211 87.6267 64.9764 87.456L64.6244 87.2L65.1844 85.68C65.2697 85.744 65.387 85.824 65.5364 85.92C65.6964 86.016 66.011 86.1493 66.4804 86.32C66.9604 86.48 67.435 86.56 67.9044 86.56C68.971 86.56 69.5044 86.24 69.5044 85.6C69.5044 85.312 69.339 85.0827 69.0084 84.912C68.6884 84.7413 68.299 84.6027 67.8404 84.496C67.3817 84.3893 66.9177 84.2613 66.4484 84.112C65.9897 83.9627 65.595 83.7067 65.2644 83.344C64.9444 82.9707 64.7844 82.496 64.7844 81.92C64.7844 81.216 65.0564 80.6293 65.6004 80.16C66.155 79.68 66.8964 79.44 67.8244 79.44C68.4217 79.44 68.9764 79.536 69.4884 79.728C70.011 79.9093 70.3844 80.096 70.6084 80.288L70.9444 80.56L70.2244 81.936C70.1604 81.872 70.0697 81.7973 69.9524 81.712C69.8457 81.616 69.595 81.4933 69.2004 81.344C68.8164 81.1947 68.411 81.12 67.9844 81.12C67.131 81.12 66.7044 81.4133 66.7044 82C66.7044 82.2453 66.8644 82.4427 67.1844 82.592C67.5044 82.7413 67.8884 82.8693 68.3364 82.976C68.795 83.0827 69.2484 83.2213 69.6964 83.392C70.155 83.552 70.5444 83.824 70.8644 84.208C71.1844 84.592 71.3444 85.0827 71.3444 85.68Z" fill="white"/>
<defs>
<filter id="filter0_d_159_1447" x="0" y="0" width="80" height="80" filterUnits="userSpaceOnUse" color-interpolation-filters="sRGB">
<feFlood flood-opacity="0" result="BackgroundImageFix"/>
<feColorMatrix in="SourceAlpha" type="matrix" values="0 0 0 0 0 0 0 0 0 0 0 0 0 0 0 0 0 0 127 0" result="hardAlpha"/>
<feOffset dy="4"/>
<feGaussianBlur stdDeviation="6"/>
<feComposite in2="hardAlpha" operator="out"/>
<feColorMatrix type="matrix" values="0 0 0 0 0 0 0 0 0 0 0 0 0 0 0 0 0 0 0.1 0"/>
<feBlend mode="normal" in2="BackgroundImageFix" result="effect1_dropShadow_159_1447"/>
<feBlend mode="normal" in="SourceGraphic" in2="effect1_dropShadow_159_1447" result="shape"/>
</filter>
<clipPath id="clip0_159_1447">
<rect width="32" height="32" fill="white" transform="translate(24 20)"/>
</clipPath>
</defs>
</svg>
