<svg width="83" height="19" viewBox="0 0 83 19" fill="none" xmlns="http://www.w3.org/2000/svg">
<path d="M0.166 9.772C0.166 7.23467 0.620667 5.24733 1.53 3.81C2.454 2.37267 3.97933 1.654 6.106 1.654C8.23267 1.654 9.75067 2.37267 10.66 3.81C11.584 5.24733 12.046 7.23467 12.046 9.772C12.046 12.324 11.584 14.326 10.66 15.778C9.75067 17.23 8.23267 17.956 6.106 17.956C3.97933 17.956 2.454 17.23 1.53 15.778C0.620667 14.326 0.166 12.324 0.166 9.772ZM9.01 9.772C9.01 8.68667 8.93667 7.77733 8.79 7.044C8.658 6.296 8.37933 5.68733 7.954 5.218C7.54333 4.74867 6.92733 4.514 6.106 4.514C5.28467 4.514 4.66133 4.74867 4.236 5.218C3.82533 5.68733 3.54667 6.296 3.4 7.044C3.268 7.77733 3.202 8.68667 3.202 9.772C3.202 10.8867 3.268 11.8253 3.4 12.588C3.532 13.336 3.81067 13.9447 4.236 14.414C4.66133 14.8687 5.28467 15.096 6.106 15.096C6.92733 15.096 7.55067 14.8687 7.976 14.414C8.40133 13.9447 8.68 13.336 8.812 12.588C8.944 11.8253 9.01 10.8867 9.01 9.772ZM14.0367 5.9C14.0367 4.78533 14.3593 3.91267 15.0047 3.282C15.6647 2.65133 16.508 2.336 17.5347 2.336C18.5613 2.336 19.3973 2.65133 20.0427 3.282C20.7027 3.91267 21.0327 4.78533 21.0327 5.9C21.0327 7.02933 20.7027 7.90933 20.0427 8.54C19.3973 9.17067 18.5613 9.486 17.5347 9.486C16.508 9.486 15.6647 9.17067 15.0047 8.54C14.3593 7.90933 14.0367 7.02933 14.0367 5.9ZM28.1607 2.6L19.5147 18H16.5227L25.1467 2.6H28.1607ZM17.5127 4.184C16.706 4.184 16.3027 4.756 16.3027 5.9C16.3027 7.05867 16.706 7.638 17.5127 7.638C17.9087 7.638 18.2167 7.49867 18.4367 7.22C18.6567 6.92667 18.7667 6.48667 18.7667 5.9C18.7667 4.756 18.3487 4.184 17.5127 4.184ZM23.6947 14.678C23.6947 13.5487 24.0173 12.676 24.6627 12.06C25.3227 11.4293 26.166 11.114 27.1927 11.114C28.2193 11.114 29.048 11.4293 29.6787 12.06C30.324 12.676 30.6467 13.5487 30.6467 14.678C30.6467 15.8073 30.324 16.6873 29.6787 17.318C29.048 17.9487 28.2193 18.264 27.1927 18.264C26.1513 18.264 25.308 17.9487 24.6627 17.318C24.0173 16.6873 23.6947 15.8073 23.6947 14.678ZM27.1707 12.962C26.3347 12.962 25.9167 13.534 25.9167 14.678C25.9167 15.8367 26.3347 16.416 27.1707 16.416C27.992 16.416 28.4027 15.8367 28.4027 14.678C28.4027 13.534 27.992 12.962 27.1707 12.962ZM43.8111 8.342H41.6771V18H38.5531V8.342H37.1671V5.812H38.5531V5.196C38.5531 3.7 38.9784 2.6 39.8291 1.896C40.6797 1.192 41.9631 0.861999 43.6791 0.906V3.502C42.9311 3.48733 42.4104 3.612 42.1171 3.876C41.8237 4.14 41.6771 4.61667 41.6771 5.306V5.812H43.8111V8.342ZM57.1371 11.642C57.1371 12.082 57.1077 12.478 57.0491 12.83H48.1391C48.2124 13.71 48.5204 14.3993 49.0631 14.898C49.6057 15.3967 50.2731 15.646 51.0651 15.646C52.2091 15.646 53.0231 15.1547 53.5071 14.172H56.8291C56.4771 15.3453 55.8024 16.3133 54.8051 17.076C53.8077 17.824 52.5831 18.198 51.1311 18.198C49.9577 18.198 48.9017 17.9413 47.9631 17.428C47.0391 16.9 46.3131 16.1593 45.7851 15.206C45.2717 14.2527 45.0151 13.1527 45.0151 11.906C45.0151 10.6447 45.2717 9.53733 45.7851 8.584C46.2984 7.63067 47.0171 6.89733 47.9411 6.384C48.8651 5.87067 49.9284 5.614 51.1311 5.614C52.2897 5.614 53.3237 5.86333 54.2331 6.362C55.1571 6.86067 55.8684 7.572 56.3671 8.496C56.8804 9.40533 57.1371 10.454 57.1371 11.642ZM53.9471 10.762C53.9324 9.97 53.6464 9.33933 53.0891 8.87C52.5317 8.386 51.8497 8.144 51.0431 8.144C50.2804 8.144 49.6351 8.37867 49.1071 8.848C48.5937 9.30267 48.2784 9.94067 48.1611 10.762H53.9471ZM70.7152 11.642C70.7152 12.082 70.6859 12.478 70.6272 12.83H61.7172C61.7905 13.71 62.0985 14.3993 62.6412 14.898C63.1839 15.3967 63.8512 15.646 64.6432 15.646C65.7872 15.646 66.6012 15.1547 67.0852 14.172H70.4072C70.0552 15.3453 69.3805 16.3133 68.3832 17.076C67.3859 17.824 66.1612 18.198 64.7092 18.198C63.5359 18.198 62.4799 17.9413 61.5412 17.428C60.6172 16.9 59.8912 16.1593 59.3632 15.206C58.8499 14.2527 58.5932 13.1527 58.5932 11.906C58.5932 10.6447 58.8499 9.53733 59.3632 8.584C59.8765 7.63067 60.5952 6.89733 61.5192 6.384C62.4432 5.87067 63.5065 5.614 64.7092 5.614C65.8679 5.614 66.9019 5.86333 67.8112 6.362C68.7352 6.86067 69.4465 7.572 69.9452 8.496C70.4585 9.40533 70.7152 10.454 70.7152 11.642ZM67.5252 10.762C67.5105 9.97 67.2245 9.33933 66.6672 8.87C66.1099 8.386 65.4279 8.144 64.6212 8.144C63.8585 8.144 63.2132 8.37867 62.6852 8.848C62.1719 9.30267 61.8565 9.94067 61.7392 10.762H67.5252ZM77.6273 18.198C76.63 18.198 75.7353 18.022 74.9433 17.67C74.1513 17.3033 73.5206 16.812 73.0513 16.196C72.5966 15.58 72.3473 14.898 72.3033 14.15H75.4053C75.464 14.6193 75.6913 15.008 76.0873 15.316C76.498 15.624 77.004 15.778 77.6053 15.778C78.192 15.778 78.6466 15.6607 78.9693 15.426C79.3066 15.1913 79.4753 14.8907 79.4753 14.524C79.4753 14.128 79.27 13.8347 78.8593 13.644C78.4633 13.4387 77.8253 13.2187 76.9453 12.984C76.036 12.764 75.288 12.5367 74.7013 12.302C74.1293 12.0673 73.6306 11.708 73.2053 11.224C72.7946 10.74 72.5893 10.0873 72.5893 9.266C72.5893 8.59133 72.78 7.97533 73.1613 7.418C73.5573 6.86067 74.1146 6.42067 74.8333 6.098C75.5666 5.77533 76.4246 5.614 77.4073 5.614C78.8593 5.614 80.018 5.98067 80.8833 6.714C81.7486 7.43267 82.2253 8.408 82.3133 9.64H79.3653C79.3213 9.156 79.116 8.77467 78.7493 8.496C78.3973 8.20267 77.9206 8.056 77.3193 8.056C76.762 8.056 76.3293 8.15867 76.0213 8.364C75.728 8.56933 75.5813 8.85533 75.5813 9.222C75.5813 9.63267 75.7866 9.948 76.1973 10.168C76.608 10.3733 77.246 10.586 78.1113 10.806C78.9913 11.026 79.7173 11.2533 80.2893 11.488C80.8613 11.7227 81.3526 12.0893 81.7633 12.588C82.1886 13.072 82.4086 13.7173 82.4233 14.524C82.4233 15.228 82.2253 15.8587 81.8293 16.416C81.448 16.9733 80.8906 17.4133 80.1573 17.736C79.4386 18.044 78.5953 18.198 77.6273 18.198Z" fill="black"/>
</svg>
