<svg width="18" height="18" viewBox="0 0 18 18" fill="none" xmlns="http://www.w3.org/2000/svg">
<path d="M5.73754 15.6825C5.71504 15.6825 5.68504 15.6975 5.66254 15.6975C4.20754 14.9775 3.02254 13.785 2.29504 12.33C2.29504 12.3075 2.31004 12.2775 2.31004 12.255C3.22504 12.525 4.17004 12.7275 5.10754 12.885C5.27254 13.83 5.46754 14.7675 5.73754 15.6825Z" fill="white"/>
<path d="M15.705 12.3375C14.9625 13.83 13.725 15.0375 12.2175 15.765C12.5025 14.8125 12.7425 13.8525 12.9 12.885C13.845 12.7275 14.775 12.525 15.69 12.255C15.6825 12.285 15.705 12.315 15.705 12.3375Z" fill="white"/>
<path d="M15.765 5.78249C14.82 5.49749 13.8675 5.26499 12.9 5.09999C12.7425 4.13249 12.51 3.17249 12.2175 2.23499C13.77 2.97749 15.0225 4.22999 15.765 5.78249Z" fill="white"/>
<path d="M5.73749 2.31748C5.46749 3.23248 5.27249 4.16248 5.11499 5.10748C4.14749 5.25748 3.18749 5.49748 2.23499 5.78248C2.96249 4.27498 4.16999 3.03748 5.66249 2.29498C5.68499 2.29498 5.71499 2.31748 5.73749 2.31748Z" fill="white"/>
<path d="M11.6174 4.9425C9.87745 4.7475 8.12245 4.7475 6.38245 4.9425C6.56995 3.915 6.80995 2.8875 7.14745 1.8975C7.16245 1.8375 7.15495 1.7925 7.16245 1.7325C7.75495 1.59 8.36245 1.5 8.99995 1.5C9.62995 1.5 10.2449 1.59 10.8299 1.7325C10.8374 1.7925 10.8374 1.8375 10.8524 1.8975C11.1899 2.895 11.4299 3.915 11.6174 4.9425Z" fill="white"/>
<path d="M4.9425 11.6175C3.9075 11.43 2.8875 11.19 1.8975 10.8525C1.8375 10.8375 1.7925 10.845 1.7325 10.8375C1.59 10.245 1.5 9.63751 1.5 9.00001C1.5 8.37001 1.59 7.75501 1.7325 7.17001C1.7925 7.16251 1.8375 7.16251 1.8975 7.14751C2.895 6.81751 3.9075 6.57001 4.9425 6.38251C4.755 8.12251 4.755 9.87751 4.9425 11.6175Z" fill="white"/>
<path d="M16.5 9.00001C16.5 9.63751 16.41 10.245 16.2675 10.8375C16.2075 10.845 16.1625 10.8375 16.1025 10.8525C15.105 11.1825 14.085 11.43 13.0575 11.6175C13.2525 9.87751 13.2525 8.12251 13.0575 6.38251C14.085 6.57001 15.1125 6.81001 16.1025 7.14751C16.1625 7.16251 16.2075 7.17001 16.2675 7.17001C16.41 7.76251 16.5 8.37001 16.5 9.00001Z" fill="white"/>
<path d="M11.6174 13.0575C11.4299 14.0925 11.1899 15.1125 10.8524 16.1025C10.8374 16.1625 10.8374 16.2075 10.8299 16.2675C10.2449 16.41 9.62995 16.5 8.99995 16.5C8.36245 16.5 7.75495 16.41 7.16245 16.2675C7.15495 16.2075 7.16245 16.1625 7.14745 16.1025C6.81745 15.105 6.56995 14.0925 6.38245 13.0575C7.25245 13.155 8.12245 13.2225 8.99995 13.2225C9.87745 13.2225 10.7549 13.155 11.6174 13.0575Z" fill="white"/>
<path d="M11.8225 11.8225C9.94668 12.0592 8.05332 12.0592 6.1775 11.8225C5.94083 9.94668 5.94083 8.05332 6.1775 6.1775C8.05332 5.94083 9.94668 5.94083 11.8225 6.1775C12.0592 8.05332 12.0592 9.94668 11.8225 11.8225Z" fill="white"/>
</svg>
