<svg width="30" height="30" viewBox="0 0 30 30" fill="none" xmlns="http://www.w3.org/2000/svg">
<rect width="30" height="30" rx="15" fill="black"/>
<path d="M15.0024 7.62229C17.4073 7.62229 17.6896 7.63301 18.6401 7.67589C19.5191 7.71519 19.9943 7.8617 20.3124 7.98677C20.734 8.15114 21.0342 8.3441 21.3486 8.65855C21.6631 8.973 21.8596 9.27316 22.0204 9.69481C22.1419 10.0128 22.292 10.4881 22.3313 11.3671C22.3742 12.3176 22.3849 12.5999 22.3849 15.0048C22.3849 17.4096 22.3742 17.6919 22.3313 18.6424C22.292 19.5214 22.1455 19.9967 22.0204 20.3147C21.856 20.7364 21.6631 21.0365 21.3486 21.351C21.0342 21.6654 20.734 21.862 20.3124 22.0228C19.9943 22.1443 19.5191 22.2943 18.6401 22.3336C17.6896 22.3765 17.4073 22.3872 15.0024 22.3872C12.5976 22.3872 12.3153 22.3765 11.3648 22.3336C10.4857 22.2943 10.0105 22.1478 9.69246 22.0228C9.27081 21.8584 8.97065 21.6654 8.6562 21.351C8.34175 21.0365 8.14521 20.7364 7.98441 20.3147C7.86292 19.9967 7.71284 19.5214 7.67354 18.6424C7.63066 17.6919 7.61994 17.4096 7.61994 15.0048C7.61994 12.5999 7.63066 12.3176 7.67354 11.3671C7.71284 10.4881 7.85935 10.0128 7.98441 9.69481C8.14879 9.27316 8.34175 8.973 8.6562 8.65855C8.97065 8.3441 9.27081 8.14756 9.69246 7.98677C10.0105 7.86527 10.4857 7.71519 11.3648 7.67589C12.3153 7.62943 12.6011 7.62229 15.0024 7.62229ZM15.0024 6C12.5583 6 12.251 6.01072 11.2897 6.0536C10.3321 6.09648 9.67817 6.25013 9.10644 6.47168C8.51327 6.70037 8.013 7.01125 7.51274 7.51151C7.01247 8.01178 6.70517 8.51562 6.4729 9.10521C6.25135 9.67695 6.0977 10.3309 6.05482 11.2921C6.01194 12.2497 6.00122 12.557 6.00122 15.0012C6.00122 17.4453 6.01194 17.7526 6.05482 18.7139C6.0977 19.6715 6.25135 20.3254 6.4729 20.9007C6.70159 21.4939 7.01247 21.9942 7.51274 22.4944C8.013 22.9947 8.51684 23.302 9.10644 23.5343C9.67817 23.7558 10.3321 23.9095 11.2933 23.9524C12.2545 23.9952 12.5583 24.006 15.006 24.006C17.4537 24.006 17.7574 23.9952 18.7187 23.9524C19.6763 23.9095 20.3302 23.7558 20.9055 23.5343C21.4987 23.3056 21.999 22.9947 22.4992 22.4944C22.9995 21.9942 23.3068 21.4903 23.5391 20.9007C23.7606 20.329 23.9143 19.6751 23.9572 18.7139C24 17.7526 24.0108 17.4489 24.0108 15.0012C24.0108 12.5535 24 12.2497 23.9572 11.2885C23.9143 10.3309 23.7606 9.67695 23.5391 9.10164C23.3104 8.50847 22.9995 8.00821 22.4992 7.50794C21.999 7.00768 21.4951 6.70037 20.9055 6.4681C20.3338 6.24656 19.6799 6.09291 18.7187 6.05003C17.7539 6.01072 17.4466 6 15.0024 6Z" fill="white"/>
<path d="M15.0024 10.3809C12.4511 10.3809 10.3785 12.4498 10.3785 15.0047C10.3785 17.5597 12.4475 19.6286 15.0024 19.6286C17.5573 19.6286 19.6263 17.5597 19.6263 15.0047C19.6263 12.4498 17.5573 10.3809 15.0024 10.3809ZM15.0024 18.0027C13.3444 18.0027 12.0008 16.6592 12.0008 15.0012C12.0008 13.3431 13.3444 11.9996 15.0024 11.9996C16.6604 11.9996 18.004 13.3431 18.004 15.0012C18.004 16.6592 16.6604 18.0027 15.0024 18.0027Z" fill="white"/>
<path d="M19.8085 11.274C20.4045 11.274 20.8877 10.7909 20.8877 10.1949C20.8877 9.59887 20.4045 9.11572 19.8085 9.11572C19.2125 9.11572 18.7294 9.59887 18.7294 10.1949C18.7294 10.7909 19.2125 11.274 19.8085 11.274Z" fill="white"/>
</svg>
