<svg width="26" height="26" viewBox="0 0 26 26" fill="none" xmlns="http://www.w3.org/2000/svg">
<path d="M13.0001 2.16663C10.1617 2.16663 7.85425 4.47413 7.85425 7.31246C7.85425 10.0966 10.0317 12.35 12.8701 12.4475C12.9567 12.4366 13.0434 12.4366 13.1084 12.4475C13.1301 12.4475 13.1409 12.4475 13.1626 12.4475C13.1734 12.4475 13.1734 12.4475 13.1842 12.4475C15.9576 12.35 18.1351 10.0966 18.1459 7.31246C18.1459 4.47413 15.8384 2.16663 13.0001 2.16663Z" fill="#F95E19"/>
<path d="M18.5033 15.3291C15.4808 13.3141 10.5516 13.3141 7.50746 15.3291C6.13162 16.25 5.37329 17.4958 5.37329 18.8283C5.37329 20.1608 6.13162 21.3958 7.49662 22.3058C9.01329 23.3241 11.0066 23.8333 13 23.8333C14.9933 23.8333 16.9866 23.3241 18.5033 22.3058C19.8683 21.385 20.6266 20.15 20.6266 18.8066C20.6158 17.4741 19.8683 16.2391 18.5033 15.3291Z" fill="#F95E19"/>
</svg>
