<svg width="39" height="38" viewBox="0 0 39 38" fill="none" xmlns="http://www.w3.org/2000/svg">
<rect x="1" y="1" width="37" height="36" rx="18" fill="white"/>
<rect x="1" y="1" width="37" height="36" rx="18" stroke="#F95E19"/>
<path d="M14.54 20.4V18.64H15.706C15.618 18.5373 15.508 18.3907 15.376 18.2C15.244 17.9947 15.068 17.5913 14.848 16.99C14.6427 16.3887 14.54 15.7873 14.54 15.186C14.54 13.8073 14.9873 12.7 15.882 11.864C16.7913 11.028 18.0307 10.61 19.6 10.61C20.4213 10.61 21.184 10.7347 21.888 10.984C22.6067 11.2187 23.12 11.4533 23.428 11.688L23.89 12.04L22.79 14.57C22.7167 14.4967 22.6067 14.4087 22.46 14.306C22.328 14.1887 22.0273 14.042 21.558 13.866C21.1033 13.6753 20.634 13.58 20.15 13.58C18.6833 13.58 17.95 14.2253 17.95 15.516C17.95 15.8093 17.994 16.1173 18.082 16.44C18.1847 16.7627 18.2947 17.0487 18.412 17.298C18.544 17.5473 18.676 17.782 18.808 18.002C18.94 18.2073 19.05 18.3613 19.138 18.464L19.27 18.64H22.68V20.4H19.82C19.8933 20.62 19.93 20.84 19.93 21.06C19.93 21.4267 19.8713 21.7713 19.754 22.094C19.6513 22.4167 19.5193 22.6807 19.358 22.886C19.1967 23.0913 19.028 23.2673 18.852 23.414C18.6907 23.5607 18.5587 23.6633 18.456 23.722L18.28 23.81C18.6613 23.6633 19.0647 23.59 19.49 23.59C19.974 23.59 20.5753 23.722 21.294 23.986C22.0127 24.2353 22.5847 24.36 23.01 24.36C23.4353 24.36 23.8387 24.2793 24.22 24.118C24.6013 23.9567 24.88 23.788 25.056 23.612L25.32 23.37V26.45C25.2613 26.5087 25.1733 26.5893 25.056 26.692C24.9387 26.7947 24.6673 26.9267 24.242 27.088C23.8313 27.2493 23.384 27.33 22.9 27.33C22.2253 27.33 21.3893 27.132 20.392 26.736C19.4093 26.3253 18.522 26.12 17.73 26.12C17.2753 26.12 16.7913 26.1933 16.278 26.34C15.7647 26.4867 15.3613 26.6333 15.068 26.78L14.65 27V24.69C14.7087 24.6607 14.7893 24.6167 14.892 24.558C14.9947 24.4993 15.1707 24.3747 15.42 24.184C15.6693 23.9787 15.8893 23.766 16.08 23.546C16.2707 23.3113 16.4467 23.0107 16.608 22.644C16.7693 22.2773 16.85 21.896 16.85 21.5C16.85 21.3093 16.828 21.126 16.784 20.95C16.7547 20.7593 16.7253 20.62 16.696 20.532L16.63 20.4H14.54Z" fill="#141C28"/>
</svg>
