<svg width="38" height="38" viewBox="0 0 38 38" fill="none" xmlns="http://www.w3.org/2000/svg">
<rect x="1" y="1" width="36" height="36" rx="18" fill="white"/>
<rect x="1" y="1" width="36" height="36" rx="18" stroke="#F95E19"/>
<path d="M10.77 19.52H11.87V18.42H10.77V16.66H12.2C12.2147 16.572 12.244 16.4547 12.288 16.308C12.332 16.1613 12.4493 15.8827 12.64 15.472C12.8307 15.0467 13.0433 14.6433 13.278 14.262C13.5127 13.8807 13.85 13.4627 14.29 13.008C14.7447 12.5387 15.2287 12.1353 15.742 11.798C16.27 11.4607 16.9227 11.182 17.7 10.962C18.492 10.7273 19.3353 10.61 20.23 10.61C20.9633 10.61 21.6673 10.6907 22.342 10.852C23.0167 10.9987 23.5667 11.182 23.992 11.402C24.432 11.6073 24.8133 11.82 25.136 12.04C25.4587 12.2453 25.6933 12.4213 25.84 12.568L26.06 12.81L24.85 15.34C24.8207 15.296 24.7693 15.2373 24.696 15.164C24.6373 15.076 24.4833 14.9293 24.234 14.724C23.9993 14.5187 23.7353 14.3427 23.442 14.196C23.1633 14.0347 22.782 13.8953 22.298 13.778C21.814 13.646 21.308 13.58 20.78 13.58C20.0467 13.58 19.3647 13.69 18.734 13.91C18.118 14.1153 17.634 14.372 17.282 14.68C16.93 14.9733 16.622 15.274 16.358 15.582C16.1087 15.8753 15.94 16.132 15.852 16.352L15.72 16.66H22.98L22.43 18.42H15.28V19.52H22.1L21.55 21.28H15.72C15.7493 21.368 15.7933 21.4853 15.852 21.632C15.9253 21.764 16.094 22.006 16.358 22.358C16.622 22.71 16.9227 23.0253 17.26 23.304C17.5973 23.568 18.0667 23.81 18.668 24.03C19.284 24.25 19.9513 24.36 20.67 24.36C21.242 24.36 21.792 24.2793 22.32 24.118C22.848 23.9567 23.2807 23.766 23.618 23.546C23.97 23.326 24.278 23.106 24.542 22.886C24.806 22.6513 24.9967 22.4533 25.114 22.292L25.29 22.05H25.62V25.24C25.576 25.2987 25.5027 25.3793 25.4 25.482C25.312 25.57 25.0993 25.7313 24.762 25.966C24.4393 26.2007 24.0873 26.4133 23.706 26.604C23.3247 26.78 22.8187 26.9413 22.188 27.088C21.572 27.2493 20.9193 27.33 20.23 27.33C19.3353 27.33 18.492 27.22 17.7 27C16.9227 26.78 16.27 26.494 15.742 26.142C15.214 25.7753 14.73 25.3793 14.29 24.954C13.8647 24.514 13.5273 24.0813 13.278 23.656C13.0287 23.2307 12.816 22.842 12.64 22.49C12.464 22.1233 12.3467 21.83 12.288 21.61L12.2 21.28H10.77V19.52Z" fill="#141C28"/>
</svg>
