<svg width="26" height="26" viewBox="0 0 26 26" fill="none" xmlns="http://www.w3.org/2000/svg">
<path d="M11.9709 16.1958L9.96675 18.2C9.54425 18.6225 8.87258 18.6225 8.43925 18.2108C8.32008 18.0916 8.20091 17.9833 8.08175 17.8641C6.96591 16.7375 5.95841 15.5566 5.05925 14.3216C4.17091 13.0866 3.45591 11.8516 2.93591 10.6275C2.42675 9.39246 2.16675 8.21163 2.16675 7.08496C2.16675 6.34829 2.29675 5.64413 2.55675 4.99413C2.81675 4.33329 3.22841 3.72663 3.80258 3.18496C4.49591 2.50246 5.25425 2.16663 6.05591 2.16663C6.35925 2.16663 6.66258 2.23163 6.93341 2.36163C7.21508 2.49163 7.46425 2.68663 7.65925 2.96829L10.1726 6.51079C10.3676 6.78163 10.5084 7.03079 10.6059 7.26913C10.7034 7.49663 10.7576 7.72413 10.7576 7.92996C10.7576 8.18996 10.6817 8.44996 10.5301 8.69913C10.3892 8.94829 10.1834 9.20829 9.92341 9.46829L9.10008 10.3241C8.98091 10.4433 8.92675 10.5841 8.92675 10.7575C8.92675 10.8441 8.93758 10.92 8.95925 11.0066C8.99175 11.0933 9.02425 11.1583 9.04591 11.2233C9.24091 11.5808 9.57675 12.0466 10.0534 12.61C10.5409 13.1733 11.0609 13.7475 11.6242 14.3216C11.7326 14.43 11.8517 14.5383 11.9601 14.6466C12.3934 15.0691 12.4042 15.7625 11.9709 16.1958Z" fill="#ABABAB"/>
<path d="M23.8007 19.8575C23.8007 20.1608 23.7466 20.475 23.6382 20.7783C23.6057 20.865 23.5732 20.9516 23.5299 21.0383C23.3457 21.4283 23.1074 21.7966 22.7932 22.1433C22.2624 22.7283 21.6774 23.1508 21.0166 23.4216C21.0057 23.4216 20.9949 23.4325 20.9841 23.4325C20.3449 23.6925 19.6516 23.8333 18.9041 23.8333C17.7991 23.8333 16.6182 23.5733 15.3724 23.0425C14.1266 22.5116 12.8807 21.7966 11.6457 20.8975C11.2232 20.5833 10.8007 20.2691 10.3999 19.9333L13.9424 16.3908C14.2457 16.6183 14.5166 16.7916 14.7441 16.9108C14.7982 16.9325 14.8632 16.965 14.9391 16.9975C15.0257 17.03 15.1124 17.0408 15.2099 17.0408C15.3941 17.0408 15.5349 16.9758 15.6541 16.8566L16.4774 16.0441C16.7482 15.7733 17.0082 15.5675 17.2574 15.4375C17.5066 15.2858 17.7557 15.21 18.0266 15.21C18.2324 15.21 18.4491 15.2533 18.6874 15.3508C18.9257 15.4483 19.1749 15.5891 19.4457 15.7733L23.0316 18.3191C23.3132 18.5141 23.5082 18.7416 23.6274 19.0125C23.7357 19.2833 23.8007 19.5541 23.8007 19.8575Z" fill="#ABABAB"/>
</svg>
