<svg width="30" height="30" viewBox="0 0 30 30" fill="none" xmlns="http://www.w3.org/2000/svg">
<g id="Iconly/Bold/Shield Done">
<g id="Shield Done">
<path id="Shield Done_2" fill-rule="evenodd" clip-rule="evenodd" d="M14.6601 27.3921C14.7986 27.4644 14.9534 27.5012 15.1081 27.4999C15.2629 27.4987 15.4165 27.4607 15.5561 27.3872L20.016 25.0031C21.2807 24.3289 22.2711 23.5751 23.0438 22.6974C24.7237 20.7853 25.6411 18.3448 25.6248 15.8283L25.5719 7.52748C25.5669 6.57139 24.9389 5.71826 24.0102 5.40815L15.7134 2.62446C15.2138 2.4553 14.6664 2.45898 14.1756 2.63304L5.91033 5.51601C4.98665 5.83839 4.37002 6.69764 4.37505 7.65496L4.42791 15.9496C4.44427 18.4698 5.39312 20.8992 7.1008 22.7918C7.88102 23.6572 8.88021 24.4 10.1588 25.0631L14.6601 27.3921ZM13.4795 17.6362C13.6657 17.8151 13.9074 17.9034 14.149 17.9009C14.3906 17.8997 14.631 17.809 14.8147 17.6276L19.6886 12.8226C20.0548 12.461 20.051 11.88 19.681 11.5233C19.3098 11.1666 18.712 11.1691 18.3458 11.5307L14.1351 15.6811L12.4111 14.0239C12.0399 13.6672 11.4434 13.6708 11.0759 14.0324C10.7097 14.394 10.7135 14.975 11.0847 15.3317L13.4795 17.6362Z" fill="#141C28"/>
</g>
</g>
</svg>
