<svg width="30" height="30" viewBox="0 0 30 30" fill="none" xmlns="http://www.w3.org/2000/svg">
<path d="M7.08752 12.3925L10.915 7.21378C13.3888 3.86628 14.6263 2.19253 15.78 2.54628C16.9338 2.90003 16.9338 4.95253 16.9338 9.05878V9.44628C16.9338 10.9275 16.9338 11.6675 17.4075 12.1313L17.4325 12.1563C17.9163 12.61 18.6863 12.61 20.2275 12.61C23.0025 12.61 24.3888 12.61 24.8575 13.4513L24.88 13.4938C25.3225 14.3475 24.5188 15.435 22.9125 17.6063L19.085 22.7863C16.61 26.1338 15.3738 27.8075 14.22 27.4538C13.0663 27.1 13.0663 25.0475 13.0663 20.9413V20.5538C13.0663 19.0725 13.0663 18.3325 12.5925 17.8688L12.5675 17.8438C12.0838 17.39 11.3138 17.39 9.77252 17.39C6.99752 17.39 5.61127 17.39 5.14252 16.5488C5.13477 16.5348 5.12727 16.5206 5.12002 16.5063C4.67752 15.6525 5.48127 14.5663 7.08752 12.3938V12.3925Z" fill="#141C28"/>
</svg>
