<svg width="26" height="26" viewBox="0 0 26 26" fill="none" xmlns="http://www.w3.org/2000/svg">
<path d="M17.5392 2.16663H8.46092C4.51758 2.16663 2.16675 4.51746 2.16675 8.46079V17.5283C2.16675 21.4825 4.51758 23.8333 8.46092 23.8333H17.5284C21.4717 23.8333 23.8226 21.4825 23.8226 17.5391V8.46079C23.8334 4.51746 21.4826 2.16663 17.5392 2.16663ZM17.0626 17.0625H8.93758C8.49341 17.0625 8.12508 16.6941 8.12508 16.25C8.12508 15.8058 8.49341 15.4375 8.93758 15.4375H17.0626C17.5067 15.4375 17.8751 15.8058 17.8751 16.25C17.8751 16.6941 17.5067 17.0625 17.0626 17.0625ZM17.0626 10.5625H8.93758C8.49341 10.5625 8.12508 10.1941 8.12508 9.74996C8.12508 9.30579 8.49341 8.93746 8.93758 8.93746H17.0626C17.5067 8.93746 17.8751 9.30579 17.8751 9.74996C17.8751 10.1941 17.5067 10.5625 17.0626 10.5625Z" fill="#ABABAB"/>
</svg>
