<svg width="30" height="30" viewBox="0 0 30 30" fill="none" xmlns="http://www.w3.org/2000/svg">
<rect width="30" height="30" rx="15" fill="url(#paint0_linear_426_111)"/>
<path fill-rule="evenodd" clip-rule="evenodd" d="M6.79002 14.8419C11.1628 12.9368 14.0787 11.6808 15.5377 11.0739C19.7033 9.3413 20.5689 9.04032 21.1331 9.03038C21.2572 9.02819 21.5346 9.05895 21.7144 9.20477C21.8661 9.32791 21.9079 9.49425 21.9279 9.61099C21.9478 9.72774 21.9727 9.99369 21.9529 10.2015C21.7272 12.5733 20.7504 18.3292 20.2535 20.9857C20.0432 22.1098 19.6292 22.4867 19.2284 22.5236C18.3573 22.6037 17.6959 21.9479 16.8522 21.3949C15.532 20.5295 14.7861 19.9907 13.5047 19.1463C12.0237 18.1703 12.9838 17.6339 13.8278 16.7573C14.0486 16.5279 17.8866 13.037 17.9609 12.7203C17.9702 12.6807 17.9788 12.533 17.8911 12.4551C17.8034 12.3771 17.674 12.4038 17.5805 12.425C17.4481 12.455 15.3391 13.849 11.2535 16.607C10.6548 17.018 10.1126 17.2183 9.62676 17.2078C9.09119 17.1962 8.06095 16.905 7.29507 16.656C6.3557 16.3507 5.6091 16.1892 5.67411 15.6707C5.70797 15.4005 6.07994 15.1243 6.79002 14.8419Z" fill="white"/>
<defs>
<linearGradient id="paint0_linear_426_111" x1="15" y1="0" x2="15" y2="29.7775" gradientUnits="userSpaceOnUse">
<stop stop-color="#2AABEE"/>
<stop offset="1" stop-color="#229ED9"/>
</linearGradient>
</defs>
</svg>
