<svg width="30" height="30" viewBox="0 0 30 30" fill="none" xmlns="http://www.w3.org/2000/svg">
<rect width="30" height="30" rx="15" fill="black"/>
<path d="M19.183 12.0804C20.5334 13.0492 22.1878 13.6192 23.9745 13.6192V10.1687C23.6364 10.1687 23.2991 10.1333 22.9683 10.063V12.7791C21.1816 12.7791 19.5275 12.2091 18.1767 11.2404V18.2819C18.1767 21.8044 15.3313 24.6598 11.8215 24.6598C10.5119 24.6598 9.29471 24.2625 8.28357 23.581C9.43762 24.7652 11.047 25.4998 12.8275 25.4998C16.3376 25.4998 19.1831 22.6445 19.1831 19.1218V12.0804H19.183ZM20.4243 8.59925C19.7342 7.84257 19.281 6.86472 19.183 5.78366V5.33984H18.2294C18.4694 6.71387 19.2881 7.88776 20.4243 8.59925ZM10.5035 20.8779C10.1179 20.3706 9.90956 19.7499 9.91049 19.1117C9.91049 17.5006 11.212 16.1944 12.8176 16.1944C13.1169 16.1943 13.4143 16.2403 13.6995 16.3311V12.8034C13.3662 12.7576 13.0299 12.7381 12.6937 12.7453V15.491C12.4083 15.4002 12.1107 15.3541 11.8114 15.3544C10.2057 15.3544 8.90431 16.6605 8.90431 18.2718C8.90431 19.4111 9.55483 20.3974 10.5035 20.8779Z" fill="#FF004F"/>
<path d="M18.1766 11.2403C19.5274 12.209 21.1816 12.779 22.9682 12.779V10.0629C21.9709 9.84975 21.088 9.32673 20.4242 8.59925C19.288 7.88769 18.4694 6.7138 18.2293 5.33984H15.7246V19.1217C15.7189 20.7283 14.4196 22.0293 12.8174 22.0293C11.8732 22.0293 11.0345 21.5776 10.5032 20.8779C9.5546 20.3974 8.90408 19.411 8.90408 18.2719C8.90408 16.6607 10.2055 15.3544 11.8112 15.3544C12.1188 15.3544 12.4153 15.4025 12.6935 15.4911V12.7453C9.24531 12.8168 6.47217 15.6443 6.47217 19.1217C6.47217 20.8576 7.16274 22.4313 8.28356 23.5811C9.29469 24.2625 10.5119 24.6599 11.8215 24.6599C15.3314 24.6599 18.1767 21.8043 18.1767 18.2819V11.2403H18.1766Z" fill="white"/>
<path d="M22.9683 10.0631V9.32867C22.069 9.33004 21.1873 9.07729 20.4243 8.59931C21.0997 9.34143 21.9891 9.85313 22.9683 10.0631ZM18.2294 5.33999C18.2065 5.20867 18.1889 5.07649 18.1767 4.94381V4.5H14.7183V18.282C14.7128 19.8884 13.4136 21.1894 11.8112 21.1894C11.3408 21.1894 10.8966 21.0773 10.5033 20.8782C11.0345 21.5778 11.8733 22.0293 12.8175 22.0293C14.4196 22.0293 15.7191 20.7285 15.7247 19.1219V5.33999H18.2294ZM12.6937 12.7455V11.9637C12.4047 11.924 12.1134 11.9041 11.8216 11.9043C8.31149 11.9042 5.46606 14.7597 5.46606 18.282C5.46606 20.4902 6.58437 22.4363 8.28371 23.5811C7.1629 22.4314 6.47232 20.8576 6.47232 19.1218C6.47232 15.6445 9.24539 12.817 12.6937 12.7455Z" fill="#00F2EA"/>
</svg>
