<svg width="100" height="100" viewBox="0 0 100 100" fill="none" xmlns="http://www.w3.org/2000/svg">
<rect opacity="0.15" width="100" height="100" rx="20" fill="#F95E19"/>
<path d="M52.179 45.1074C52.179 44.1642 51.4126 43.4568 50.5284 43.4568H43.8674C42.9242 43.4568 42.2168 44.2232 42.2168 45.1074V59.4905H37.8547V51.3558C37.8547 50.4126 37.0884 49.7053 36.2042 49.7053H29.5432C28.6 49.7053 27.8926 50.4716 27.8926 51.3558V59.4905H25.0632C23.9432 59.4905 23 60.4337 23 61.5537C23 62.6737 23.9432 63.6168 25.0632 63.6168H44.2211C45.7537 62.0842 48.5242 59.6674 52.12 57.84V45.1074H52.179Z" fill="#F95E19"/>
<path d="M53.8885 38.2105H56.5411V56.1895C58.1327 55.7769 59.7832 55.4821 61.5516 55.4821C63.32 55.4821 64.9706 55.7179 66.5622 56.1895V38.2105H69.2148C70.7474 38.2105 71.6316 36.4421 70.6885 35.2632L62.9664 25.419C62.259 24.4758 60.7853 24.4758 60.0779 25.419L52.4148 35.2042C51.4716 36.4421 52.3558 38.2105 53.8885 38.2105Z" fill="#F95E19"/>
<path d="M32.2546 36.0295H33.6694C34.1999 36.0295 34.6715 36.2653 35.0252 36.6189C35.3789 36.9726 35.5557 37.5032 35.4968 38.0337C35.3789 38.9179 34.5536 39.6253 33.6104 39.6253H31.6652C31.1346 39.6253 30.6631 39.2716 30.5452 38.7411C30.4862 38.3874 30.1325 38.0926 29.7199 38.0926H27.4799C27.2441 38.0926 27.0083 38.2105 26.8315 38.3874C26.6546 38.5642 26.5957 38.8 26.5957 39.0358C26.8315 41.3347 28.5999 43.1621 30.8989 43.5158V45.3432C30.8989 45.8147 31.2525 46.1684 31.7241 46.1684H33.9641C34.4357 46.1684 34.7894 45.8147 34.7894 45.3432V43.3979C37.2652 42.8084 39.0925 40.8632 39.3283 38.3874C39.5052 36.7368 38.9746 35.2042 37.8546 33.9663C36.7936 32.7874 35.202 32.08 33.6104 32.08H31.9599C31.4294 32.08 30.9578 31.8442 30.6041 31.4905C30.2504 31.1368 30.0736 30.6063 30.1325 30.0758C30.2504 29.1916 31.0757 28.4842 32.0778 28.4842H34.0231C34.5536 28.4842 35.0252 28.8379 35.1431 29.3684C35.202 29.7221 35.5557 30.0168 35.9683 30.0168H38.2083C38.4441 30.0168 38.6799 29.8989 38.8568 29.7221C39.0336 29.5453 39.0925 29.3095 39.0925 29.0737C38.8568 26.7747 37.0883 24.9474 34.7894 24.5937V22.8253C34.7894 22.3537 34.4357 22 33.9641 22H31.7241C31.2525 22 30.8989 22.3537 30.8989 22.8253V24.7116C28.0104 25.3011 26.0652 27.8947 26.3599 30.9011C26.5957 33.7895 29.1894 36.0295 32.2546 36.0295Z" fill="#F95E19"/>
<path d="M76.819 67.6842C76.5242 67.3305 69.9221 59.6084 61.4926 59.6084C53.0632 59.6084 46.4021 67.3305 46.1663 67.6842C45.6358 68.3326 45.6358 69.2758 46.1663 69.9242C46.4611 70.2779 53.0632 78 61.4926 78C69.9811 78 76.5832 70.2779 76.819 69.9242C77.4084 69.2758 77.4084 68.3326 76.819 67.6842ZM60.2547 63.7937C61.3158 63.7937 62.1411 64.6189 62.1411 65.68C62.1411 66.7411 61.3158 67.5663 60.2547 67.5663C59.1937 67.5663 58.3684 66.7411 58.3684 65.68C58.3684 64.6189 59.2526 63.7937 60.2547 63.7937ZM61.4926 74.5221C56.3642 74.5221 51.7663 70.6316 49.88 68.8042C51 67.7432 53.0632 65.9158 55.6569 64.6189C55.48 65.2084 55.3621 65.8568 55.3621 66.5053C55.3621 69.8653 58.1326 72.6358 61.4926 72.6358C64.8526 72.6358 67.6232 69.8653 67.6232 66.5053C67.6232 65.8568 67.5053 65.2084 67.3284 64.6189C69.9221 65.9158 71.9853 67.7432 73.1053 68.8042C71.219 70.6316 66.6211 74.5221 61.4926 74.5221Z" fill="#F95E19"/>
</svg>
