<svg width="26" height="26" viewBox="0 0 26 26" fill="none" xmlns="http://www.w3.org/2000/svg">
<rect width="26" height="26" rx="13" fill="url(#paint0_linear_426_67)"/>
<path d="M5.11438 20.5632L6.22906 16.5155C5.53992 15.3274 5.1784 13.9819 5.18216 12.6064C5.18216 8.29629 8.70696 4.79199 13.0339 4.79199C15.1352 4.79199 17.1085 5.60529 18.5884 7.08196C20.0722 8.55864 20.8893 10.5225 20.8856 12.6101C20.8856 16.9202 17.3608 20.4245 13.0301 20.4245H13.0263C11.7121 20.4245 10.4204 20.0947 9.27183 19.4726L5.11438 20.5632ZM9.47142 18.0596L9.70866 18.202C10.7104 18.7942 11.8589 19.1053 13.0301 19.109H13.0339C16.6302 19.109 19.56 16.1969 19.56 12.6139C19.56 10.8786 18.8822 9.24826 17.6507 8.01894C16.4193 6.78963 14.7774 6.115 13.0339 6.115C9.43752 6.11126 6.50773 9.02338 6.50773 12.6064C6.50773 13.832 6.85042 15.0275 7.50567 16.062L7.66006 16.3093L7.00105 18.7042L9.47142 18.0596Z" fill="white"/>
<path d="M5.38928 20.2894L6.4663 16.3804C5.79975 15.2373 5.44954 13.9367 5.44954 12.61C5.4533 8.44979 8.85382 5.06543 13.0339 5.06543C15.0636 5.06543 16.9654 5.85249 18.3964 7.2767C19.8274 8.7009 20.6144 10.5973 20.6144 12.6137C20.6144 16.7739 17.2101 20.1583 13.0339 20.1583H13.0301C11.761 20.1583 10.5145 19.8397 9.4074 19.24L5.38928 20.2894Z" fill="url(#paint1_linear_426_67)"/>
<path d="M5.11438 20.5632L6.22906 16.5155C5.53992 15.3274 5.1784 13.9819 5.18216 12.6064C5.18216 8.29629 8.70696 4.79199 13.0339 4.79199C15.1352 4.79199 17.1085 5.60529 18.5884 7.08196C20.0722 8.55864 20.8893 10.5225 20.8856 12.6101C20.8856 16.9202 17.3608 20.4245 13.0301 20.4245H13.0263C11.7121 20.4245 10.4204 20.0947 9.27183 19.4726L5.11438 20.5632ZM9.47142 18.0596L9.70866 18.202C10.7104 18.7942 11.8589 19.1053 13.0301 19.109H13.0339C16.6302 19.109 19.56 16.1969 19.56 12.6139C19.56 10.8786 18.8822 9.24826 17.6507 8.01894C16.4193 6.78963 14.7774 6.115 13.0339 6.115C9.43752 6.11126 6.50773 9.02338 6.50773 12.6064C6.50773 13.832 6.85042 15.0275 7.50567 16.062L7.66006 16.3093L7.00105 18.7042L9.47142 18.0596Z" fill="url(#paint2_linear_426_67)"/>
<path fill-rule="evenodd" clip-rule="evenodd" d="M11.0718 9.33813C10.9249 9.01206 10.7705 9.00457 10.6312 9.00082C10.5182 8.99707 10.3864 8.99707 10.2546 8.99707C10.1228 8.99707 9.91191 9.04579 9.73115 9.24068C9.55039 9.43558 9.04578 9.90781 9.04578 10.871C9.04578 11.8305 9.74998 12.76 9.84789 12.8911C9.9458 13.0223 11.2073 15.0574 13.1995 15.8408C14.8564 16.4929 15.1953 16.3617 15.5531 16.328C15.9108 16.2942 16.713 15.8557 16.8786 15.3985C17.0406 14.9413 17.0406 14.5515 16.9916 14.469C16.9427 14.3866 16.8109 14.3378 16.615 14.2404C16.4192 14.143 15.4552 13.6707 15.2744 13.6033C15.0937 13.5395 14.9619 13.5058 14.8338 13.7007C14.702 13.8956 14.3254 14.3341 14.2125 14.4653C14.0995 14.5964 13.9827 14.6114 13.7869 14.514C13.5911 14.4165 12.9584 14.2104 12.2091 13.5433C11.6254 13.0261 11.2299 12.3852 11.117 12.1903C11.004 11.9954 11.1057 11.8905 11.2036 11.793C11.2902 11.7068 11.3994 11.5644 11.4973 11.452C11.5952 11.3395 11.6291 11.2571 11.6931 11.1259C11.7572 10.9947 11.727 10.8823 11.6781 10.7848C11.6291 10.6911 11.245 9.72416 11.0718 9.33813Z" fill="white"/>
<defs>
<linearGradient id="paint0_linear_426_67" x1="12.9993" y1="25.9987" x2="12.9993" y2="-0.000909673" gradientUnits="userSpaceOnUse">
<stop stop-color="#20B038"/>
<stop offset="1" stop-color="#60D66A"/>
</linearGradient>
<linearGradient id="paint1_linear_426_67" x1="13.0015" y1="20.2887" x2="13.0015" y2="5.0649" gradientUnits="userSpaceOnUse">
<stop stop-color="#20B038"/>
<stop offset="1" stop-color="#60D66A"/>
</linearGradient>
<linearGradient id="paint2_linear_426_67" x1="13.0015" y1="20.5617" x2="13.0015" y2="4.79199" gradientUnits="userSpaceOnUse">
<stop stop-color="#F9F9F9"/>
<stop offset="1" stop-color="white"/>
</linearGradient>
</defs>
</svg>
