<svg width="190" height="157" viewBox="0 0 190 157" fill="none" xmlns="http://www.w3.org/2000/svg">
<path opacity="0.7" d="M52 125.125C42.1487 108.215 26.119 119.198 15.0561 110.506C4.8887 102.551 -0.537408 84.2183 0.0420797 69.5731C0.568886 54.9278 11.7372 40.3353 26.3297 39.1236C32.7041 38.5968 39.0258 40.4933 45.4001 40.0192C65.7876 38.6495 77.1139 15.7861 95.0253 5.98747C115.676 -5.28619 141.964 2.66858 161.034 16.4182C173.203 25.1632 184.108 36.753 187.954 51.1875C191.8 65.622 186.795 83.112 173.625 90.2239C161.772 96.5983 149 93.7712 138 101.648C130.319 107.148 128.897 113.482 130.319 122.806C132.532 137.399 117.066 149.648 103 154.125C88.9343 158.603 72.8781 156.609 62.5 146.125C57.7061 141.173 55.4769 131.078 52 125.125Z" fill="#FFE9DF"/>
</svg>
