<svg width="86" height="89" viewBox="0 0 86 89" fill="none" xmlns="http://www.w3.org/2000/svg">
<path d="M43.0083 0.313965C31.3395 0.313965 22.1077 4.04443 15.8348 10.1897C9.56179 16.335 6.28653 24.8285 6.28653 34.0936C6.29763 35.82 8.76241 36.1198 9.17875 34.4433C9.17875 34.4377 9.45632 33.3275 10.5111 32.1229C11.5658 30.9127 13.2812 29.6803 16.562 29.6803C19.8372 29.6803 21.5637 30.9127 22.624 32.1229C23.5344 33.1665 23.812 34.0103 23.8841 34.249C23.9618 35.9921 26.4766 36.1698 26.793 34.4489C26.793 34.4489 27.0817 33.3275 28.142 32.1173C29.1967 30.9127 30.9121 29.6803 34.1929 29.6803C37.4681 29.6803 39.189 30.9127 40.2438 32.1229C41.2153 33.2331 41.4873 34.1768 41.5317 34.3323V42.8924C41.4873 44.8908 44.5127 44.8908 44.4739 42.8924V34.3267C44.5072 34.1768 44.7903 33.2331 45.7618 32.1229C46.8165 30.9127 48.5319 29.6803 51.8127 29.6803C55.0879 29.6803 56.8088 30.9127 57.8691 32.1229C58.8961 33.2886 59.1681 34.3378 59.1848 34.4044C59.5068 35.9477 61.694 35.9755 62.0548 34.4433C62.0548 34.4433 62.3213 33.333 63.376 32.1229C64.4308 30.9127 66.1572 29.6803 69.438 29.6803C72.7188 29.6803 74.4342 30.9127 75.4889 32.1229C76.5437 33.333 76.8212 34.4433 76.8212 34.4433C77.2431 36.1198 79.7079 35.8256 79.719 34.0991C79.719 24.8285 76.4382 16.335 70.1652 10.1897C63.8923 4.04998 54.6771 0.313965 43.0083 0.313965ZM41.5317 3.61143V25.2781C41.5317 27.2377 44.4739 27.2377 44.4739 25.2781V3.61143C45.6452 3.96671 47.3328 4.66618 49.2646 6.14282C52.7619 8.81854 56.7589 13.9146 58.4076 24.0346C58.663 26.0497 61.7106 25.5557 61.3054 23.5628C59.5845 13.0042 55.2656 7.13095 51.2298 3.96671C58.3077 5.24906 63.9478 8.2079 68.1168 12.2936C72.6245 16.7014 75.4001 22.4581 76.3716 28.9364C74.7839 27.7151 72.5023 26.7437 69.438 26.7437C65.3745 26.7437 62.6932 28.4479 61.1777 30.1799C60.9556 30.4297 60.8058 30.6795 60.6226 30.9293C60.4505 30.6795 60.2895 30.4297 60.073 30.1799C58.5575 28.4479 55.8762 26.7381 51.8127 26.7381C47.7491 26.7381 45.0623 28.4479 43.5468 30.1799C43.3303 30.4297 43.1804 30.674 43.0028 30.9238C42.8251 30.674 42.6697 30.4242 42.4532 30.1799C40.9432 28.4479 38.2564 26.7381 34.1929 26.7381C30.1293 26.7381 27.4425 28.4479 25.927 30.1799C25.7049 30.4297 25.5551 30.6795 25.3719 30.9293C25.1998 30.6795 25.0388 30.4297 24.8223 30.1799C23.3068 28.4479 20.6255 26.7381 16.562 26.7381C13.4921 26.7381 11.2161 27.7151 9.62841 28.9364C10.5943 22.4581 13.3811 16.7014 17.8887 12.2881C22.0522 8.21345 27.6923 5.25461 34.7646 3.96116C30.7344 7.1254 26.4155 13.0042 24.6946 23.5572C24.2949 25.5557 27.3426 26.0553 27.5924 24.0346C29.2411 13.9202 33.2491 8.81854 36.7465 6.14282C38.6728 4.66618 40.3604 3.96671 41.5372 3.61143H41.5317ZM4.80989 47.3056C3.64365 47.3129 2.52733 47.7798 1.70318 48.605C0.879032 49.4302 0.413538 50.5471 0.407715 51.7134V84.0274C0.407715 86.4422 2.39508 88.4351 4.80989 88.4351H48.8816C49.0748 88.4351 49.2661 88.3971 49.4445 88.3232C49.623 88.2492 49.7852 88.1409 49.9218 88.0043C50.0584 87.8677 50.1668 87.7055 50.2407 87.527C50.3146 87.3485 50.3527 87.1572 50.3527 86.9641C50.3527 86.7709 50.3146 86.5796 50.2407 86.4011C50.1668 86.2226 50.0584 86.0604 49.9218 85.9238C49.7852 85.7872 49.623 85.6789 49.4445 85.6049C49.2661 85.531 49.0748 85.493 48.8816 85.493H4.80989C4.61618 85.4975 4.42357 85.4627 4.2437 85.3907C4.06383 85.3187 3.90045 85.2109 3.76344 85.0739C3.62643 84.9369 3.51865 84.7735 3.44661 84.5936C3.37458 84.4137 3.33979 84.2211 3.34435 84.0274V51.7189C3.34435 50.8751 3.97164 50.2478 4.80989 50.2478H48.876C49.0692 50.2478 49.2605 50.2098 49.439 50.1358C49.6175 50.0619 49.7796 49.9536 49.9163 49.8169C50.0529 49.6803 50.1612 49.5182 50.2351 49.3397C50.3091 49.1612 50.3471 48.9699 50.3471 48.7767C50.3471 48.5835 50.3091 48.3922 50.2351 48.2138C50.1612 48.0353 50.0529 47.8731 49.9163 47.7365C49.7796 47.5999 49.6175 47.4915 49.439 47.4176C49.2605 47.3437 49.0692 47.3056 48.876 47.3056H4.80989ZM65.0414 47.3112C53.7001 47.3112 44.4683 56.5263 44.4683 67.8676C44.4683 79.2089 53.7001 88.4351 65.0358 88.4351C69.8322 88.4351 74.4675 86.7587 78.1591 83.6999C78.3208 83.5812 78.4566 83.4307 78.558 83.2576C78.6594 83.0845 78.7243 82.8925 78.7488 82.6934C78.7733 82.4943 78.7568 82.2923 78.7003 82.0998C78.6438 81.9073 78.5486 81.7284 78.4204 81.5741C78.2922 81.4198 78.1339 81.2933 77.955 81.2024C77.7762 81.1115 77.5806 81.0582 77.3804 81.0457C77.1802 81.0332 76.9795 81.0618 76.7908 81.1297C76.602 81.1976 76.4291 81.3033 76.2828 81.4405C73.7083 83.5818 70.5768 84.9449 67.2552 85.37C63.9337 85.7951 60.5599 85.2646 57.5291 83.8407C54.4983 82.4168 51.9362 80.1584 50.1431 77.3304C48.35 74.5023 47.4002 71.2218 47.4049 67.8732C47.4027 65.5582 47.8572 63.2656 48.7422 61.1265C49.6273 58.9874 50.9256 57.0439 52.5627 55.4072C54.1999 53.7706 56.1438 52.4729 58.2832 51.5885C60.4226 50.7042 62.7153 50.2505 65.0303 50.2534C67.3456 50.249 69.6391 50.7017 71.7791 51.5856C73.9191 52.4694 75.8636 53.767 77.5011 55.404C79.1386 57.0409 80.4368 58.985 81.3213 61.1248C82.2059 63.2645 82.6593 65.5578 82.6556 67.8732C82.657 71.2429 81.6938 74.5426 79.88 77.3825C79.7639 77.5449 79.6821 77.7293 79.6395 77.9243C79.5969 78.1193 79.5945 78.321 79.6324 78.517C79.6702 78.713 79.7476 78.8992 79.8597 79.0644C79.9718 79.2295 80.1164 79.3701 80.2846 79.4776C80.4528 79.5851 80.6412 79.6573 80.8382 79.6896C81.0351 79.722 81.2366 79.714 81.4304 79.666C81.6242 79.618 81.8062 79.5311 81.9653 79.4105C82.1244 79.2899 82.2573 79.1382 82.3559 78.9646C84.3412 75.8566 85.4546 72.2719 85.5794 68.586C85.7042 64.9001 84.8358 61.2483 83.0653 58.0131C81.2947 54.7778 78.687 52.078 75.5151 50.1962C72.3433 48.3145 68.7239 47.3199 65.0358 47.3167L65.0414 47.3112ZM13.6253 53.1845C13.4195 53.1821 13.2154 53.2229 13.0263 53.3043C12.8372 53.3857 12.6674 53.506 12.5276 53.6572C12.3879 53.8084 12.2815 53.9872 12.2153 54.1822C12.1491 54.3771 12.1245 54.5838 12.1431 54.7888C12.1102 55.9205 11.6403 56.9955 10.832 57.7883C10.0236 58.5811 8.93974 59.0301 7.80759 59.0411C6.91938 59.0522 6.26988 59.7183 6.28098 60.5288V75.212C6.27779 75.4183 6.31805 75.623 6.39913 75.8127C6.48021 76.0025 6.6003 76.173 6.75161 76.3134C6.90291 76.4537 7.08204 76.5606 7.27735 76.6271C7.47267 76.6937 7.67981 76.7184 7.8853 76.6997C9.00569 76.7279 10.0724 77.1855 10.8649 77.978C11.6574 78.7704 12.115 79.8372 12.1431 80.9576C12.0654 81.8236 12.7538 82.5674 13.6253 82.5563H43.0028C44.9846 82.5841 44.9846 79.5919 43.0028 79.6197H14.9465C14.6524 78.2116 13.9537 76.92 12.936 75.9033C11.9183 74.8866 10.626 74.1891 9.21761 73.8963V61.85C10.6267 61.5569 11.9196 60.8585 12.9373 59.8408C13.9551 58.823 14.6534 57.5302 14.9465 56.1211H42.9972C44.9846 56.1488 44.9846 53.1567 42.9972 53.1789L13.6253 53.1845ZM31.2562 59.0522C26.4044 59.0522 22.4408 63.0158 22.4408 67.8676C22.4408 72.7195 26.4044 76.6831 31.2562 76.6831C36.1081 76.6831 40.0717 72.7195 40.0717 67.8676C40.0717 63.0158 36.1025 59.0522 31.2562 59.0522ZM31.2562 61.9944C34.5148 61.9944 37.1295 64.6035 37.1295 67.8676C37.1295 71.1318 34.5204 73.7409 31.2562 73.7409C27.9921 73.7409 25.3719 71.1318 25.3719 67.8676C25.3719 64.6035 27.9921 61.9944 31.2562 61.9944Z" fill="#F95E19"/>
<path d="M56 68.9639H57.4211V67.7797H56V65.885H57.7526L57.7763 65.8376C57.8395 65.6324 57.9026 65.435 57.9658 65.2455C58.0289 65.056 58.1789 64.7324 58.4158 64.2745C58.6526 63.8166 58.9053 63.3981 59.1737 63.0192C59.4421 62.6245 59.8132 62.1902 60.2868 61.7166C60.7605 61.2429 61.2658 60.8481 61.8026 60.5324C62.3553 60.2008 63.0184 59.9245 63.7921 59.7034C64.5816 59.4824 65.4184 59.3718 66.3026 59.3718C67.1237 59.3718 67.8895 59.4587 68.6 59.6324C69.3263 59.806 69.9105 60.0192 70.3526 60.2718C70.8105 60.5087 71.2053 60.7455 71.5368 60.9824C71.8684 61.2192 72.1053 61.4245 72.2474 61.5981L72.4605 61.8587L71.6316 63.635C71.5842 63.5718 71.5211 63.4929 71.4421 63.3981C71.3632 63.2876 71.1658 63.106 70.85 62.8534C70.55 62.6008 70.2184 62.3797 69.8553 62.1902C69.5079 61.985 69.0342 61.8034 68.4342 61.6455C67.8342 61.4718 67.2026 61.385 66.5395 61.385C65.5605 61.385 64.6684 61.5429 63.8632 61.8587C63.0579 62.1587 62.4263 62.5297 61.9684 62.9718C61.5263 63.4139 61.1474 63.856 60.8316 64.2981C60.5158 64.7402 60.3026 65.1113 60.1921 65.4113L60.0263 65.885H69.0263L68.4342 67.7797H59.6711V68.9639H68.0789L67.4868 70.8587H60.0263C60.0579 70.985 60.1132 71.1508 60.1921 71.356C60.2711 71.5455 60.4763 71.9008 60.8079 72.4218C61.1553 72.9429 61.55 73.4008 61.9921 73.7955C62.4342 74.1902 63.0579 74.5534 63.8632 74.885C64.6684 75.2008 65.5605 75.3587 66.5395 75.3587C67.2026 75.3587 67.8342 75.2639 68.4342 75.0745C69.05 74.8692 69.5553 74.6324 69.95 74.3639C70.3605 74.0797 70.7158 73.8034 71.0158 73.535C71.3158 73.2508 71.5289 73.006 71.6553 72.8008L71.8684 72.5166H72.2237V74.885C72.1763 74.9481 72.1053 75.035 72.0105 75.1455C71.9158 75.256 71.6868 75.4613 71.3237 75.7613C70.9763 76.0455 70.5895 76.2981 70.1632 76.5192C69.7526 76.7245 69.2 76.9139 68.5053 77.0876C67.8105 77.2771 67.0763 77.3718 66.3026 77.3718C65.4184 77.3718 64.5816 77.2534 63.7921 77.0166C63.0026 76.7955 62.3395 76.535 61.8026 76.235C61.2658 75.9192 60.7526 75.5166 60.2632 75.0271C59.7895 74.5218 59.4263 74.0955 59.1737 73.7481C58.9211 73.4008 58.6684 72.9745 58.4158 72.4692C58.1632 71.9481 58.0132 71.6245 57.9658 71.4981C57.9184 71.3718 57.8553 71.1745 57.7763 70.906L57.7526 70.8587H56V68.9639Z" fill="#141C28"/>
</svg>
