<svg width="17" height="18" viewBox="0 0 17 18" fill="none" xmlns="http://www.w3.org/2000/svg">
<path d="M0.77 9.52H1.87V8.42H0.77V6.66H2.2C2.21467 6.572 2.244 6.45467 2.288 6.308C2.332 6.16133 2.44933 5.88267 2.64 5.472C2.83067 5.04667 3.04333 4.64333 3.278 4.262C3.51267 3.88067 3.85 3.46267 4.29 3.008C4.74467 2.53867 5.22867 2.13533 5.742 1.798C6.27 1.46067 6.92267 1.182 7.7 0.961999C8.492 0.727332 9.33533 0.609999 10.23 0.609999C10.9633 0.609999 11.6673 0.690666 12.342 0.851999C13.0167 0.998666 13.5667 1.182 13.992 1.402C14.432 1.60733 14.8133 1.82 15.136 2.04C15.4587 2.24533 15.6933 2.42133 15.84 2.568L16.06 2.81L14.85 5.34C14.8207 5.296 14.7693 5.23733 14.696 5.164C14.6373 5.076 14.4833 4.92933 14.234 4.724C13.9993 4.51867 13.7353 4.34267 13.442 4.196C13.1633 4.03467 12.782 3.89533 12.298 3.778C11.814 3.646 11.308 3.58 10.78 3.58C10.0467 3.58 9.36467 3.69 8.734 3.91C8.118 4.11533 7.634 4.372 7.282 4.68C6.93 4.97333 6.622 5.274 6.358 5.582C6.10867 5.87533 5.94 6.132 5.852 6.352L5.72 6.66H12.98L12.43 8.42H5.28V9.52H12.1L11.55 11.28H5.72C5.74933 11.368 5.79333 11.4853 5.852 11.632C5.92533 11.764 6.094 12.006 6.358 12.358C6.622 12.71 6.92267 13.0253 7.26 13.304C7.59733 13.568 8.06667 13.81 8.668 14.03C9.284 14.25 9.95133 14.36 10.67 14.36C11.242 14.36 11.792 14.2793 12.32 14.118C12.848 13.9567 13.2807 13.766 13.618 13.546C13.97 13.326 14.278 13.106 14.542 12.886C14.806 12.6513 14.9967 12.4533 15.114 12.292L15.29 12.05H15.62V15.24C15.576 15.2987 15.5027 15.3793 15.4 15.482C15.312 15.57 15.0993 15.7313 14.762 15.966C14.4393 16.2007 14.0873 16.4133 13.706 16.604C13.3247 16.78 12.8187 16.9413 12.188 17.088C11.572 17.2493 10.9193 17.33 10.23 17.33C9.33533 17.33 8.492 17.22 7.7 17C6.92267 16.78 6.27 16.494 5.742 16.142C5.214 15.7753 4.73 15.3793 4.29 14.954C3.86467 14.514 3.52733 14.0813 3.278 13.656C3.02867 13.2307 2.816 12.842 2.64 12.49C2.464 12.1233 2.34667 11.83 2.288 11.61L2.2 11.28H0.77V9.52Z" fill="#141C28"/>
</svg>
